<?xml version="1.0" encoding="UTF-8" standalone="no"?>
<!-- Created with Inkscape (http://www.inkscape.org/) -->

<svg
   xmlns:dc="http://purl.org/dc/elements/1.1/"
   xmlns:cc="http://creativecommons.org/ns#"
   xmlns:rdf="http://www.w3.org/1999/02/22-rdf-syntax-ns#"
   xmlns:svg="http://www.w3.org/2000/svg"
   xmlns="http://www.w3.org/2000/svg"
   xmlns:sodipodi="http://sodipodi.sourceforge.net/DTD/sodipodi-0.dtd"
   xmlns:inkscape="http://www.inkscape.org/namespaces/inkscape"
   width="150mm"
   height="210mm"
   viewBox="0 0 150 210"
   version="1.1"
   id="svg8"
   inkscape:version="0.92.4 (5da689c313, 2019-01-14)"
   sodipodi:docname="crapovecto.svg">
  <defs
     id="defs2" />
  <sodipodi:namedview
     id="base"
     pagecolor="#ffffff"
     bordercolor="#666666"
     borderopacity="1.0"
     inkscape:pageopacity="0.0"
     inkscape:pageshadow="2"
     inkscape:zoom="0.7"
     inkscape:cx="260.33595"
     inkscape:cy="334.69105"
     inkscape:document-units="mm"
     inkscape:current-layer="svg8"
     showgrid="false"
     inkscape:window-width="2124"
     inkscape:window-height="1292"
     inkscape:window-x="2830"
     inkscape:window-y="51"
     inkscape:window-maximized="0" />
  <metadata
     id="metadata5">
    <rdf:RDF>
      <cc:Work
         rdf:about="">
        <dc:format>image/svg+xml</dc:format>
        <dc:type
           rdf:resource="http://purl.org/dc/dcmitype/StillImage" />
        <dc:title></dc:title>
      </cc:Work>
    </rdf:RDF>
  </metadata>
  <g
     inkscape:groupmode="layer"
     id="layer3"
     inkscape:label="outline"
     style="display:inline">
    <path
       style="display:inline;fill:none;fill-opacity:1;stroke:#000000;stroke-width:13.33333397;stroke-linecap:round;stroke-linejoin:round;stroke-miterlimit:4;stroke-dasharray:none;stroke-opacity:1;paint-order:normal"
       d="m 318.88867,11.798828 c -7.50504,-0.185196 -15.85797,4.896494 -19.88281,15.195313 -4.29313,9.34391 -1.76779,26.011521 -7.57617,80.054689 -4.88144,45.41869 -14.31661,90.77507 -17.23047,104.22851 -3.22457,0.37852 -5.78471,1.06406 -7.01367,2.08985 -6.09857,5.09042 -8.08203,15.15234 -8.08203,15.15234 l 0.0195,0.0625 c -14.38627,2.51107 -26.30434,9.16995 -35.62696,18.37305 -19.69796,19.44544 -25.23506,35.78467 -25.50586,52.27539 0,0 -7.82911,6.06058 -11.61718,13.63672 -3.78808,7.57614 -5.30234,12.8805 -1.26172,16.41601 1.87554,-1.74881 3.67831,-3.57839 5.47265,-5.4375 -10.16386,12.27203 -16.40218,22.26598 -17.37304,23.85157 -0.002,-8e-4 -0.26758,-0.0996 -0.26758,-0.0996 -4.2857,-59.46429 -2.70641,-72.81011 5.71484,-120.17969 5.71429,-32.14288 31.42801,-23.57031 39.28516,-23.57031 7.85714,0 7.14313,-2.85686 7.85742,-7.14258 0.71429,-4.28572 1.39581,-10.66451 -2.14258,-13.57227 -4.78627,-3.9332 -12.85798,-3.57088 -18.57226,0.71485 -5.71429,4.28572 -20.71289,11.42773 -20.71289,11.42773 0,0 0.35547,-15.35605 10.35547,-36.07031 9.99999,-20.71431 13.93024,-29.64397 9.64453,-33.92969 -1.875,-1.87503 -5.11771,-3.06569 -8.65039,-3.03516 l 0.002,-0.002 c -4.54207,0.0393 -9.56502,2.09712 -12.7793,7.32031 -3.97945,6.46662 -10.714,36.42996 -12.14258,44.28711 -1.42857,7.85714 -4.99971,9.2854 -7.14257,2.14258 -2.14285,-7.14289 -9.50878,-19.94064 -7.14258,-37.85742 0.7921,-5.99773 -16.54014,-4.48479 -21.78711,9.28516 -6.28165,16.4853 16.42969,38.57226 16.42969,38.57226 -11.78572,3.57139 -17.53956,-3.73024 -29.28516,2.14258 -7.85715,3.92855 -11.15548,18.77367 1.42773,23.21484 6.07143,2.14288 20.35741,-12.14337 27.85743,-3.21484 0,0 1.78599,23.57172 -4.64258,37.85742 -6.42858,14.28571 -27.14314,128.57142 -22.85742,160 4.28572,31.42855 7.8577,53.57144 5.71484,60 -2.14286,6.42852 -31.429122,75.71429 -30.714844,90 0.714293,14.28567 7.142574,25.71484 7.142574,25.71484 L 90.802734,573.8457 c -14.89285,-7.80102 -43.570858,14.28432 -54.285156,40.71289 -10.714281,26.42861 -7.857984,43.57142 11.427734,57.5 15.30951,11.05682 38.971435,27.26706 105.033208,40.08203 -2.01567,0.24908 -39.99401,4.92757 -51.81836,5.2754 -12.142855,0.35716 -46.071998,1.78632 -60.714848,8.21484 -14.64286,6.42856 -22.85603,15.71369 -23.570312,19.28516 -0.714289,3.57146 0.714282,7.50026 7.5,5.35742 6.785711,-2.14284 14.729412,-6.61017 26.427734,-10.71485 20.357141,-7.14289 38.743705,-9.03237 58.214846,-9.64257 0,0 -21.429962,6.78633 -24.287111,8.21484 -2.85713,1.42866 -13.926897,4.6434 -27.855469,13.21484 -13.928568,8.5714 -20.715126,22.8563 -13.572266,28.92774 7.142858,6.07147 27.133872,-1.90406 32.857422,-16.78516 3.571442,-9.28573 43.927734,-17.85742 43.927734,-17.85742 0,0 -18.11242,8.2736 -24.999999,20 -8.22245,13.9991 -3.570875,17.14313 3.214843,17.85742 6.785716,0.71429 17.499716,-9.64309 34.642576,-25.35742 14.98498,-13.7362 38.95533,-31.88464 68.31836,-39.48047 33.80774,2.20622 48.82422,-2.66211 48.82422,-2.66211 0,0 9.89984,5.57491 19.67578,7.07617 l -0.0351,0.0664 c 11.14569,1.95379 26.48554,7.20306 55.23437,3.85742 9.45222,0.0488 30.27862,0.97148 56.55273,7.21484 36.07148,8.57148 64.28462,24.28622 76.07032,28.21485 10.81107,3.6037 31.21693,-1.81372 24.59765,-13.48438 2.65406,1.70673 13.404,7.77846 27.90235,4.55664 16.07142,-3.57142 17.14424,-15.00085 -15.71289,-28.57226 -3.92856,-10.35712 -13.57231,-12.50028 -41.07227,-20.35742 -19.83666,-5.66759 -31.27429,-5.01559 -36.1289,-4.21289 14.59593,-6.31276 28.11498,-13.46574 38.27148,-21.14454 13.71927,-10.37238 23.92937,-22.49972 16.07226,-44.64257 -7.82547,-22.05362 -24.15558,-26.74411 -43.69335,-21.8418 0.3496,-0.83626 0.63845,-1.65336 0.83593,-2.44336 3.57143,-14.28571 -2.14286,-45.71425 -20,-75 -7.59602,-12.45747 -11.66946,-19.05258 -14.32617,-23.31445 l 1.11133,-0.61328 c 0,0 -6.4289,4.64314 17.14258,-2.14258 23.5714,-6.78573 56.78547,-5.35824 64.64258,-1.42969 7.85718,3.92859 7.85882,11.78543 7.14453,19.64258 -0.7143,7.85715 1.78513,15 9.28515,15 7.49998,0 12.14195,-12.14282 11.42774,-20 -0.71433,-7.85715 -9.99866,-14.64178 -0.71289,-11.07031 9.28569,3.57142 10.3563,13.57174 13.92773,17.85742 3.57143,4.28572 13.57115,3.92719 17.14258,0.71289 3.57143,-3.2143 1.07198,-13.21372 -4.28516,-19.28516 -4.25983,-4.82781 -15.00022,-8.57199 -15.35742,-13.21484 -0.35716,-4.64289 6.78516,-5.71289 6.78516,-5.71289 9.28573,0.35716 20.00054,10 25.71484,10 5.71427,0 6.42774,-5.35881 6.42774,-12.14453 0,-6.78573 -7.14288,-9.28655 -22.5,-13.57227 -15.35717,-4.28576 -26.78545,2.50078 -27.14258,-1.42773 -0.35717,-3.92863 8.92857,-13.21292 12.5,-18.21289 3.57142,-5.00002 7.47778,-14.06384 -7.85742,-20 -11.07145,-4.28576 -11.07116,21.0708 -14.64258,31.78515 -3.57143,10.71428 -16.42774,5.71289 -16.42774,5.71289 -9.62626,-0.71308 -72.99427,-21.71447 -113.71679,-50.5664 0.98782,-0.49827 1.93197,-0.99969 2.84961,-1.50391 0.29187,-0.1602 0.56945,-0.32168 0.85351,-0.48242 0.63966,-0.36224 1.25782,-0.7253 1.85547,-1.08985 0.35103,-0.21406 0.70939,-0.42779 1.04492,-0.64257 0.13378,-0.0856 0.26525,-0.17208 0.39649,-0.25782 0.59615,-0.38945 1.17564,-0.7806 1.71679,-1.17187 6.66816,-4.8217 12.58428,-10.01733 17.52344,-15.64063 1.79606,-2.04483 3.46327,-4.14671 4.99024,-6.30664 0.38174,-0.53998 0.75506,-1.08349 1.11914,-1.63086 0.72815,-1.09473 1.42068,-2.20536 2.07617,-3.33007 2.29421,-3.9365 4.13519,-8.05838 5.46484,-12.37891 1.32966,-4.32053 2.14901,-8.83977 2.39844,-13.57031 0.13404,-2.54228 -0.90649,-6.0201 -2.95117,-9.53125 -5.22854,-10.19902 -17.06801,-24.8887 -32.64063,-39.19531 0.621,0.45715 1.2223,0.9039 1.86524,1.37109 4.82016,3.50256 2.52539,-10.09961 2.52539,-10.09961 -3.28297,-8.83884 -13.63672,-16.92188 -13.63672,-16.92188 0,0 -10.85949,-37.37391 -46.21485,-53.03125 -1.69644,-0.75128 -3.36946,-1.44307 -5.03125,-2.10742 0.11607,-0.45924 2.11292,-8.73281 -2.79687,-16.83398 -1.20367,-1.98606 -3.87252,-3.59313 -7.29883,-4.83594 1.1601,-15.90753 7.2667,-52.68679 9.57031,-67.13672 2.77791,-17.42514 20.70961,-88.137036 22.98243,-114.148436 1.20745,-13.818573 -6.20913,-20.794017 -14.71485,-21.003906 z"
       transform="scale(0.26458333)"
       id="path109-3"
       inkscape:connector-curvature="0"
       sodipodi:nodetypes="scsccccsccccccsssccccccccccssccscssccccccccccscccccccssccccccscccccccsccscccscscccssccssccccccccccccccscccccccccscscsss" />
  </g>
  <g
     inkscape:groupmode="layer"
     id="layer2"
     inkscape:label="color"
     style="display:inline"
     transform="translate(0,-87)">
    <path
       style="display:inline;fill:#79a35d;fill-opacity:1;stroke:none;stroke-width:0.26499999;stroke-linecap:round;stroke-linejoin:round;stroke-miterlimit:4;stroke-dasharray:none;stroke-opacity:1"
       d="m 51.785275,119.34243 c -1.201756,0.0104 -2.530744,0.55486 -3.381189,1.93683 -1.052897,1.71096 -2.834749,9.63877 -3.212725,11.71764 -0.377975,2.07887 -1.322842,2.45676 -1.889807,0.56689 -0.566963,-1.88989 -2.515865,-5.27597 -1.889808,-10.01645 0.209577,-1.5869 -4.376245,-1.1866 -5.764506,2.4567 -1.66202,4.36174 4.347022,10.20558 4.347022,10.20558 -3.118302,0.94493 -4.640672,-0.98696 -7.748362,0.56689 -2.078871,1.03943 -2.951554,4.9672 0.377753,6.14226 1.606399,0.56697 5.386232,-3.21294 7.370609,-0.8506 0,0 0.472543,6.23668 -1.228349,10.01644 -1.700895,3.77976 -7.18162,34.01786 -6.047692,42.33334 1.13393,8.31547 2.079019,14.17411 1.512054,15.875 -0.566965,1.70088 -8.315624,20.03274 -8.126638,23.8125 0.18899,3.77975 1.889808,6.80372 1.889808,6.80372 l -3.96875,-2.07895 c -3.9404,-2.06402 -11.528123,3.77939 -14.362948,10.77195 -2.83482,6.99257 -2.079091,11.52828 3.023589,15.21355 4.050641,2.92545 10.311191,7.2144 27.790034,10.60503 -0.533313,0.0659 -10.581748,1.30376 -13.710274,1.39578 -3.212796,0.0945 -12.189881,0.47262 -16.064135,2.17351 -3.874257,1.70089 -6.047324,4.15759 -6.236311,5.10254 -0.188989,0.94495 0.188987,1.98444 1.984375,1.41748 1.795386,-0.56696 3.897156,-1.74894 6.992337,-2.83497 5.38616,-1.88988 10.250937,-2.38981 15.402676,-2.55126 0,0 -5.67001,1.79554 -6.425964,2.1735 -0.755949,0.37799 -3.684823,1.22857 -7.370091,3.49643 -3.685267,2.26786 -5.480878,6.0474 -3.590996,7.6538 1.889881,1.6064 7.179169,-0.50377 8.693525,-4.44107 0.944944,-2.45684 11.622548,-4.72478 11.622548,-4.72478 0,0 -4.792244,2.18905 -6.614583,5.29167 -2.175523,3.70393 -0.944795,4.53578 0.850593,4.72477 1.795386,0.18899 4.630134,-2.55141 9.165849,-6.70915 3.964773,-3.63437 10.306931,-8.43613 18.075899,-10.44586 8.944965,0.58373 12.918071,-0.70436 12.918071,-0.70436 0,0 2.619337,1.47503 5.205887,1.87225 l -0.009,0.0176 c 0.009,-0.0176 7.00764,1.9053 14.6141,1.0201 2.5009,0.0129 8.01122,0.25754 14.962914,1.90943 9.5439,2.26787 17.00864,6.42522 20.12694,7.46467 2.86043,0.95348 8.25948,-0.47937 6.50813,-3.56723 0.70222,0.45157 3.54647,2.05754 7.38249,1.2051 4.25223,-0.94494 4.53608,-3.96897 -4.15737,-7.55974 -1.03943,-2.74032 -3.591,-3.30737 -10.86703,-5.38624 -5.24845,-1.49955 -8.27466,-1.32704 -9.55911,-1.11466 3.86184,-1.67025 7.43876,-3.56281 10.126,-5.59449 3.62989,-2.74436 6.33131,-5.95305 4.25245,-11.81168 -2.07049,-5.83502 -6.39117,-7.07604 -11.56054,-5.77897 0.0925,-0.22126 0.16893,-0.43746 0.22118,-0.64648 0.94494,-3.77976 -0.56697,-12.09523 -5.29167,-19.84375 -2.00978,-3.29604 -3.08755,-5.04099 -3.79046,-6.16861 l 0.29404,-0.16227 c 0,0 -1.70097,1.2285 4.53564,-0.56689 6.2366,-1.79539 15.02448,-1.4177 17.10334,-0.37827 2.07888,1.03944 2.07932,3.11823 1.89033,5.1971 -0.18899,2.07887 0.47232,3.96875 2.4567,3.96875 1.98437,0 3.21256,-3.21279 3.02359,-5.29167 -0.189,-2.07887 -2.64548,-3.87397 -0.18862,-2.92902 2.45684,0.94494 2.7401,3.59086 3.68504,4.72478 0.94494,1.13393 3.5907,1.03907 4.53564,0.18862 0.94494,-0.85045 0.28363,-3.49613 -1.13378,-5.10253 -1.12708,-1.27736 -3.96881,-2.26801 -4.06332,-3.49643 -0.0945,-1.22843 1.79524,-1.51153 1.79524,-1.51153 2.45685,0.0945 5.29181,2.64583 6.80372,2.64583 1.5119,0 1.70067,-1.41785 1.70067,-3.21324 0,-1.79539 -1.88988,-2.45656 -5.95312,-3.59049 -4.06325,-1.13394 -7.08698,0.66116 -7.18147,-0.37826 -0.0945,-1.03945 2.36235,-3.49592 3.30729,-4.81883 0.94494,-1.32292 1.97849,-3.72105 -2.07895,-5.29166 -2.92932,-1.13394 -2.92924,5.57498 -3.87418,8.40982 -0.94494,2.83482 -4.3465,1.51204 -4.3465,1.51204 -2.54695,-0.18867 -19.31308,-5.74529 -30.087574,-13.37903 0.88465,-0.44622 1.67046,-0.90241 2.30632,-1.36219 5.132464,-3.71125 8.580464,-8.26347 8.882144,-13.98518 0.24957,-4.73322 -17.764804,-24.56831 -33.639804,-24.94628 -15.386127,-0.36634 -27.541112,19.093 -28.277344,20.2954 -5.29e-4,-2.1e-4 -0.0708,-0.0263 -0.0708,-0.0263 -1.133927,-15.73326 -0.716071,-19.26435 1.512051,-31.79755 1.511906,-8.50447 8.315328,-6.23631 10.394199,-6.23631 2.078868,0 1.889953,-0.75588 2.078942,-1.88981 0.188989,-1.13393 0.369306,-2.82166 -0.566891,-3.591 -1.266367,-1.04066 -3.402007,-0.94479 -4.91391,0.18914 -1.511906,1.13393 -5.480286,3.02359 -5.480286,3.02359 0,0 0.09405,-4.06295 2.739882,-9.5436 2.645834,-5.48066 3.685712,-7.8433 2.551785,-8.97723 -0.496096,-0.4961 -1.354058,-0.81113 -2.288749,-0.80305 z"
       id="path109"
       inkscape:connector-curvature="0"
       sodipodi:nodetypes="ccscsscsscssccccsccsscssccssscssscccccsscccccccccsccsssscscssccssccsccccccsccssssscsccc" />
    <path
       style="display:inline;fill:#c0d07c;fill-opacity:1;stroke:none;stroke-width:0.84666669;stroke-linecap:butt;stroke-linejoin:miter;stroke-miterlimit:4;stroke-dasharray:none;stroke-opacity:1"
       d="m 100.84843,177.36111 c -0.82034,-0.0199 -1.704434,0.0998 -2.646874,0.39894 -6.03157,1.91457 -8.40886,9.47606 -22.39398,10.98796 -7.893747,0.85338 -20.482562,-2.39757 -23.056468,-7.98453 -2.515399,-5.45996 -6.992856,-1.65364 -6.992856,-1.65364 0,0 -5.62561,10.31119 -0.756025,18.33169 0.687845,1.13293 2.08086,2.07368 3.840075,2.85513 -3.162157,6.29886 -10.6539,21.85862 -11.399306,29.46177 -0.944941,9.6384 -1.70104,14.55201 3.779615,21.73355 5.480656,7.18156 12.851191,18.71004 26.458338,18.14308 13.607137,-0.56696 18.520967,-3.96868 26.647457,-13.79606 8.126494,-9.82738 8.693164,-18.33192 0.94465,-32.50602 -4.92968,-9.01772 -4.65681,-17.34119 -3.80649,-22.20795 2.91246,-1.05608 5.69139,-2.2607 7.39748,-3.49436 5.132474,-3.71125 8.580464,-8.26348 8.882154,-13.98519 0.10528,-1.99683 -2.46795,-6.17688 -6.89777,-6.28437 z"
       id="path109-6-7"
       inkscape:connector-curvature="0" />
    <path
       style="display:inline;fill:#c4b286;fill-opacity:1;stroke:none;stroke-width:0.70555556;stroke-linecap:butt;stroke-linejoin:miter;stroke-miterlimit:4;stroke-dasharray:none;stroke-opacity:1"
       d="m 72.296406,144.05501 c 0,0 3.27405,-14.43255 4.81085,-28.73147 1.5368,-14.29892 0.86863,-18.708871 2.00452,-21.181114 2.2718,-5.813111 9.75534,-5.34539 9.15398,1.536801 -0.60135,6.882183 -5.34539,25.591053 -6.08038,30.201453 -0.73499,4.6104 -2.93996,17.84024 -2.53906,19.57749 0.40091,1.73725 -7.34991,-1.40316 -7.34991,-1.40316 z"
       id="path5073"
       inkscape:connector-curvature="0"
       sodipodi:nodetypes="csccscc" />
    <path
       style="display:inline;opacity:1;vector-effect:none;fill:#9d6c4c;fill-opacity:1;stroke:none;stroke-width:0.70555556;stroke-linecap:butt;stroke-linejoin:miter;stroke-miterlimit:4;stroke-dasharray:none;stroke-dashoffset:0;stroke-opacity:1"
       d="m 68.554636,147.46269 c 0,0 0.52457,-2.6622 2.13815,-4.00904 1.43722,-1.19961 9.55489,-0.73498 10.89124,1.46999 1.33635,2.20498 0.73499,4.47676 0.73499,4.47676 l -1.33635,1.67044 -11.89349,-1.93771 z"
       id="path5041"
       inkscape:connector-curvature="0"
       sodipodi:nodetypes="cscc" />
    <path
       style="display:inline;fill:#9d6c4c;fill-opacity:1;stroke:none;stroke-width:0.70555556;stroke-linecap:round;stroke-linejoin:round;stroke-miterlimit:4;stroke-dasharray:none;stroke-opacity:1"
       d="m 48.977139,174.12283 c 4.944488,-4.6104 8.084905,-11.02487 24.121077,-12.16077 16.03617,-1.13589 15.01216,1.36975 25.72469,9.15398 1.275334,0.92672 0.66817,-2.67269 0.66817,-2.67269 -0.86862,-2.33861 -3.60814,-4.47677 -3.60814,-4.47677 0,0 -2.87314,-9.88897 -12.22758,-14.03164 -11.03832,-4.8884 -19.310217,-2.73952 -24.521973,2.40542 -5.211756,5.14494 -6.676909,9.46803 -6.748555,13.8312 0,0 -2.071339,1.60362 -3.0736,3.60814 -1.00226,2.00452 -1.40317,3.40769 -0.334089,4.34313 z"
       id="path5035"
       inkscape:connector-curvature="0"
       sodipodi:nodetypes="cssccssccc" />
    <path
       transform="translate(0,87)"
       style="display:inline;fill:#c8d8be;fill-opacity:1;stroke:none;stroke-width:0.70555556;stroke-linecap:round;stroke-linejoin:round;stroke-miterlimit:4;stroke-dasharray:none;stroke-opacity:1"
       d="m 57.853564,93.101988 c 0,0 -3.827007,-0.472469 -4.393972,-4.252229 -0.566965,-3.77976 1.228421,-7.9375 5.480653,-9.35491 4.252233,-1.41741 10.259222,-2.0587 12.520462,3.16555 1.37016,3.16555 -0.85044,5.811369 -2.03162,7.701259 -3.874258,0.708701 -11.575523,2.74033 -11.575523,2.74033 z"
       id="path5023-7"
       inkscape:connector-curvature="0"
       sodipodi:nodetypes="cssscc" />
    <path
       transform="translate(0,87)"
       style="display:inline;fill:#c8d8be;fill-opacity:1;stroke:none;stroke-width:0.70555556;stroke-linecap:round;stroke-linejoin:round;stroke-miterlimit:4;stroke-dasharray:none;stroke-opacity:1"
       d="m 85.115098,77.793959 c -3.84197,-0.16758 -7.748521,2.36235 -7.228801,7.46503 0.51972,5.102679 2.88208,5.57514 2.88208,5.57514 l 6.54371,-0.755951 6.827189,-0.28348 c 0,0 0.67519,-1.97113 -0.519718,-5.716889 -0.576062,-1.8058 -1.891641,-5.99542 -8.50446,-6.28385 z"
       id="path5025-0"
       inkscape:connector-curvature="0"
       sodipodi:nodetypes="sscccss" />
    <path
       style="display:inline;opacity:1;vector-effect:none;fill:#ffaaaa;fill-opacity:1;stroke:none;stroke-width:0.70555556;stroke-linecap:round;stroke-linejoin:round;stroke-miterlimit:4;stroke-dasharray:none;stroke-dashoffset:0;stroke-opacity:1"
       d="m 86.171446,194.39861 c -0.73102,0.71217 -1.87258,1.63657 -4.51073,2.5942 -3.70537,1.34502 -7.18154,1.37016 -11.67001,0.0945 -2.244225,-0.63783 -3.654435,-1.45875 -5.212291,-2.49819 0.802377,-0.59859 0.828537,-1.1194 2.591691,-0.96673 1.22907,0.10643 6.05631,0.84109 8.21113,0.86557 2.15482,0.0245 5.11293,-0.0549 8.61864,-0.51346 0,0 1.19281,-0.33564 1.97157,0.42411 z"
       id="path4963-2-6-9"
       inkscape:connector-curvature="0"
       sodipodi:nodetypes="csscsssc" />
    <ellipse
       style="display:inline;opacity:1;vector-effect:none;fill:#ffffff;fill-opacity:1;stroke:#ffffff;stroke-width:0.70555556;stroke-linecap:round;stroke-linejoin:round;stroke-miterlimit:4;stroke-dasharray:none;stroke-dashoffset:0;stroke-opacity:1"
       id="path5031"
       cx="56.483398"
       cy="173.98351"
       rx="1.3229166"
       ry="1.4882812" />
    <ellipse
       style="display:inline;opacity:1;vector-effect:none;fill:#ffffff;fill-opacity:1;stroke:#ffffff;stroke-width:0.70555556;stroke-linecap:round;stroke-linejoin:round;stroke-miterlimit:4;stroke-dasharray:none;stroke-dashoffset:0;stroke-opacity:1"
       id="path5033"
       cx="80.88649"
       cy="171.99913"
       rx="1.2047991"
       ry="1.4882812" />
  </g>
  <g
     inkscape:groupmode="layer"
     id="layer1"
     inkscape:label="strokes"
     style="display:inline">
    <path
       style="display:inline;opacity:1;vector-effect:none;fill:none;fill-opacity:1;stroke:#000000;stroke-width:5.33333349;stroke-linecap:round;stroke-linejoin:round;stroke-miterlimit:4;stroke-dasharray:none;stroke-dashoffset:0;stroke-opacity:1"
       d="m 370.50174,315.71479 c 0.97328,0.72189 1.9734,1.45656 3.00216,2.20411 4.82016,3.50256 2.52537,-10.10151 2.52537,-10.10151 -3.28297,-8.83885 -13.63706,-16.92008 -13.63706,-16.92008 0,0 -10.85912,-37.37563 -46.21448,-53.03297 -41.71964,-18.47585 -72.9835,-10.35409 -92.68148,9.09136 -19.69797,19.44543 -25.23556,35.78468 -25.50635,52.2754 0,0 -7.82868,6.06093 -11.61675,13.63706 -3.78807,7.57614 -5.30332,12.87946 -1.2627,16.41498 v 0 c 2.54343,-2.37158 4.96056,-4.86946 7.39145,-7.42616"
       id="path994"
       transform="scale(0.26458333)"
       inkscape:connector-curvature="0" />
    <path
       style="display:inline;opacity:1;vector-effect:none;fill:none;fill-opacity:1;stroke:#000000;stroke-width:5.33333349;stroke-linecap:round;stroke-linejoin:round;stroke-miterlimit:4;stroke-dasharray:none;stroke-dashoffset:0;stroke-opacity:1"
       d="m 192.5019,321.85698 c 15.43006,-16.2286 31.41464,-34.82695 83.77483,-38.5358 59.06913,-4.18405 56.89392,4.70464 94.22501,32.39361"
       id="path5035-6"
       transform="scale(0.26458333)"
       inkscape:connector-curvature="0" />
    <path
       transform="translate(0,-87.000001)"
       style="display:inline;fill:none;stroke:#000000;stroke-width:1.41111112;stroke-linecap:round;stroke-linejoin:round;stroke-miterlimit:4;stroke-dasharray:none;stroke-opacity:1"
       d="m 45.758325,178.73183 c -0.755952,-8.69346 -0.716218,-19.02781 1.511905,-31.56101 1.511905,-8.50446 8.315475,-6.23661 10.394346,-6.23661 2.078868,0 1.889879,-0.75595 2.078868,-1.88988 0.188989,-1.13393 0.369231,-2.82143 -0.566965,-3.59077 -1.266368,-1.04066 -3.401786,-0.94494 -4.913689,0.18899 -1.511906,1.13393 -5.480655,3.02381 -5.480655,3.02381 0,0 0.09449,-4.06325 2.740326,-9.5439 2.645833,-5.48066 3.685268,-7.84301 2.55134,-8.97694 -1.13393,-1.13392 -4.157737,-1.32291 -5.669642,1.13393 -1.052896,1.71096 -2.834822,9.6384 -3.212798,11.71726 -0.377976,2.07887 -1.322917,2.45685 -1.889882,0.56697 -0.566962,-1.88988 -2.515937,-5.27589 -1.889879,-10.01637 0.209576,-1.5869 -4.375879,-1.18645 -5.764139,2.45684 -1.66202,4.36174 4.346727,10.20536 4.346727,10.20536 -3.118303,0.94494 -4.640821,-0.98688 -7.748512,0.56696 -2.07887,1.03944 -2.951332,4.96706 0.377976,6.14212 1.6064,0.56697 5.386157,-3.21279 7.370536,-0.85044 0,0 0.472471,6.23661 -1.228421,10.01636 -1.700895,3.77977 -7.181549,34.01786 -6.047621,42.33333 1.13393,8.31548 2.078871,14.17412 1.511906,15.875 -0.566965,1.70089 -8.315476,20.03274 -8.126489,23.8125 0.188989,3.77976 1.889881,6.80357 1.889881,6.80357 0,0 3.401785,7.9375 13.796132,16.064"
       id="path111-7"
       inkscape:connector-curvature="0"
       sodipodi:nodetypes="csssascscsscsscscssssscc" />
    <path
       transform="translate(0,-87.000001)"
       style="display:inline;fill:none;stroke:#000000;stroke-width:1.41111112;stroke-linecap:round;stroke-linejoin:round;stroke-miterlimit:4;stroke-dasharray:none;stroke-opacity:1"
       d="m 27.993444,240.90891 -3.96875,-2.07887 c -3.9404,-2.06402 -11.528272,3.77976 -14.363095,10.77232 -2.83482,6.99256 -2.07887,11.52829 3.02381,15.21356 4.079498,2.9463 10.394344,7.27603 28.159226,10.67782 17.764881,3.40179 25.324403,0.94493 25.324403,0.94493 0,0 4.346728,2.45686 7.370538,1.88988 3.02381,-0.56696 18.33184,-10.01637 24.75744,-15.11904 6.425594,-5.10268 14.174114,-10.96131 15.119054,-14.74108 0.94494,-3.77976 -0.56697,-12.09523 -5.29167,-19.84375 -4.7247,-7.74851 -4.91369,-7.9375 -4.91369,-7.9375 0,0 1.5119,-2.45684 0.94494,-5.85863"
       id="path113-5"
       inkscape:connector-curvature="0"
       sodipodi:nodetypes="csssscccsscc" />
    <path
       transform="translate(0,-87.000001)"
       style="display:inline;fill:none;stroke:#000000;stroke-width:1.41111112;stroke-linecap:square;stroke-linejoin:miter;stroke-miterlimit:4;stroke-dasharray:none;stroke-opacity:1"
       d="m 113.13259,249.12989 c 5.19717,-1.32292 9.5439,-0.0945 11.62277,5.76414 2.07886,5.85864 -0.62235,9.0674 -4.25224,11.81175 -8.53513,6.45296 -26.041334,11.50549 -33.167414,12.47323 -8.41254,1.14243 -13.51265,0.37797 -15.96949,-0.85046"
       id="path115-3"
       inkscape:connector-curvature="0"
       sodipodi:nodetypes="ccssc" />
    <path
       transform="translate(0,-87.000001)"
       style="display:inline;fill:none;stroke:#000000;stroke-width:1.41111112;stroke-linecap:butt;stroke-linejoin:miter;stroke-miterlimit:4;stroke-dasharray:none;stroke-opacity:1"
       d="m 40.655647,275.39924 c 0,0 -10.677828,1.32291 -13.890626,1.41741 -3.212796,0.0945 -12.189732,0.47247 -16.063986,2.17336 -3.874257,1.70089 -6.047621,4.15774 -6.236608,5.10268 -0.188989,0.94494 0.188987,1.98437 1.984375,1.41741 1.795386,-0.56696 3.897379,-1.74879 6.992559,-2.83482 5.386161,-1.88988 10.250789,-2.38991 15.402529,-2.55135 0,0 -5.669642,1.7954 -6.425594,2.17337 -0.755951,0.37798 -3.685268,1.22842 -7.370536,3.49628 -3.685267,2.26786 -5.480656,6.04762 -3.590774,7.65402 1.889882,1.6064 7.179096,-0.50391 8.693452,-4.44122 0.944942,-2.45684 11.622767,-4.7247 11.622767,-4.7247 0,0 -4.792242,2.18904 -6.614583,5.29166 -2.175523,3.70393 -0.94494,4.53572 0.850448,4.72471 1.795386,0.18899 4.630209,-2.55134 9.165923,-6.70908 3.992367,-3.65967 9.638392,-8.50447 17.481396,-10.48884"
       id="path117-5"
       inkscape:connector-curvature="0"
       sodipodi:nodetypes="csscssccssscsssc" />
    <path
       transform="translate(0,-87.000001)"
       style="display:inline;fill:none;stroke:#000000;stroke-width:1.41111112;stroke-linecap:round;stroke-linejoin:round;stroke-miterlimit:4;stroke-dasharray:none;stroke-opacity:1"
       d="m 96.407136,198.85906 c 0,0 2.55134,2.45685 6.142114,3.96875 3.59077,1.5119 21.54465,9.35491 24.09598,9.5439 0,0 3.40179,1.32292 4.34673,-1.5119 0.94494,-2.83483 0.94494,-9.5439 3.87426,-8.40997 4.05744,1.57062 3.02381,3.96874 2.07887,5.29167 -0.94494,1.32292 -3.40179,3.77976 -3.30729,4.8192 0.0945,1.03943 3.1183,-0.75596 7.18155,0.37798 4.06324,1.13393 5.95312,1.79539 5.95312,3.59078 0,1.79539 -0.18899,3.21279 -1.70089,3.21279 -1.51191,0 -4.34673,-2.55135 -6.80358,-2.64584 0,0 -1.88988,0.28348 -1.79538,1.51191 0.0945,1.22842 2.93616,2.21892 4.06324,3.49629 1.41741,1.6064 2.07887,4.25222 1.13393,5.10267 -0.94494,0.85044 -3.59078,0.94494 -4.53572,-0.18899 -0.94494,-1.13392 -1.22842,-3.77975 -3.68526,-4.72469 -2.45685,-0.94496 0,0.85043 0.18899,2.9293 0.18898,2.07887 -1.03944,5.29167 -3.02381,5.29167 -1.98438,0 -2.64584,-1.88988 -2.45685,-3.96875 0.18899,-2.07886 0.18899,-4.15773 -1.88988,-5.19718 -2.07887,-1.03943 -10.86682,-1.4174 -17.10342,0.37799 -6.23661,1.79539 -4.53572,0.56695 -4.53572,0.56695"
       id="path131-0"
       inkscape:connector-curvature="0"
       sodipodi:nodetypes="csccssscsscssscccsscsc" />
    <path
       transform="translate(0,-87.000001)"
       style="display:inline;fill:none;stroke:#000000;stroke-width:1.41111112;stroke-linecap:butt;stroke-linejoin:miter;stroke-miterlimit:4;stroke-dasharray:none;stroke-opacity:1"
       d="m 84.500886,279.36799 c 0,0 6.89807,-0.37798 16.441964,1.88989 9.5439,2.26785 17.00893,6.42558 20.12723,7.46503 3.11831,1.03942 9.26042,-0.75596 5.85864,-4.44122 -1.03944,-1.6064 -5.66965,-2.92932 -8.22099,-3.87426 -3.09507,-1.14634 -10.58333,-0.94494 -10.58333,-0.94494"
       id="path3993-9"
       inkscape:connector-curvature="0"
       sodipodi:nodetypes="csccsc" />
    <path
       transform="translate(0,-87.000001)"
       style="display:inline;fill:none;stroke:#000000;stroke-width:1.41111112;stroke-linecap:butt;stroke-linejoin:miter;stroke-miterlimit:4;stroke-dasharray:none;stroke-opacity:1"
       d="m 109.63631,272.46992 c 0,0 3.0238,-1.13392 10.29985,0.94495 7.27604,2.07887 9.82738,2.64583 10.86681,5.38615"
       id="path3995-3"
       inkscape:connector-curvature="0" />
    <path
       transform="translate(0,-87.000001)"
       style="display:inline;fill:none;stroke:#000000;stroke-width:1.41111112;stroke-linecap:butt;stroke-linejoin:miter;stroke-miterlimit:4;stroke-dasharray:none;stroke-opacity:1"
       d="m 117.38482,275.77721 c 0,0 7.843,0.18898 13.41815,3.02381 8.69345,3.59077 8.40997,6.61459 4.15774,7.55953 -4.43635,0.98585 -7.55952,-1.32292 -7.55952,-1.32292"
       id="path3997-6"
       inkscape:connector-curvature="0"
       sodipodi:nodetypes="ccsc" />
    <path
       style="display:inline;fill:none;fill-opacity:1;stroke:#000000;stroke-width:5.33333349;stroke-linecap:butt;stroke-linejoin:miter;stroke-miterlimit:4;stroke-dasharray:none;stroke-opacity:1"
       d="m 317.37695,11.832031 c -7.08876,0.48251 -14.61457,5.549879 -18.37109,15.16211 -4.29312,9.343911 -1.76779,26.011526 -7.57617,80.054689 -5.1733,48.13422 -15.09431,94.24333 -17.30274,104.28125 0.3877,-0.0471 0.66472,-0.14018 1.07227,-0.17774 1.85957,-0.17137 3.91467,-0.2448 6.0664,-0.21679 2.15174,0.028 4.39939,0.15626 6.64454,0.38476 2.24514,0.2285 4.48713,0.55817 6.62695,0.98828 2.13982,0.43012 4.17793,0.96089 6.01367,1.59375 0.19035,0.0656 0.31215,0.16071 0.49805,0.22852 1.15279,-15.88588 7.26674,-52.71776 9.57226,-67.17969 C 313.399,129.52602 331.3307,58.814134 333.60352,32.802734 334.882,18.171305 326.49107,11.211661 317.37695,11.832031 Z"
       id="path5073-3"
       transform="scale(0.26458333)"
       inkscape:connector-curvature="0" />
    <path
       style="display:inline;opacity:1;vector-effect:none;fill:none;fill-opacity:1;stroke:#000000;stroke-width:1.41111112;stroke-linecap:butt;stroke-linejoin:miter;stroke-miterlimit:4;stroke-dasharray:none;stroke-dashoffset:0;stroke-opacity:1"
       d="m 68.554637,60.46269 c 0,0 0.52457,-2.662201 2.13815,-4.009041 1.43722,-1.19961 9.554891,-0.734981 10.891239,1.469991 1.336351,2.204979 0.734993,4.47676 0.734993,4.47676"
       id="path5041-8-7-5"
       inkscape:connector-curvature="0"
       sodipodi:nodetypes="cscc" />
    <path
       style="display:inline;opacity:1;vector-effect:none;fill:none;fill-opacity:1;stroke:#000000;stroke-width:1.41111112;stroke-linecap:round;stroke-linejoin:round;stroke-miterlimit:4;stroke-dasharray:none;stroke-dashoffset:0;stroke-opacity:1"
       d="m 50.895848,85.131406 c -3.246519,3.826727 -5.137523,6.978396 -5.137523,6.978396 0,0 -5.625533,10.311348 -0.755951,18.331848 3.212798,5.29167 21.733631,6.4256 21.733631,6.4256"
       id="path991"
       inkscape:connector-curvature="0" />
    <path
       style="display:inline;opacity:1;vector-effect:none;fill:none;fill-opacity:1;stroke:#000000;stroke-width:1.41111112;stroke-linecap:round;stroke-linejoin:round;stroke-miterlimit:4;stroke-dasharray:none;stroke-dashoffset:0;stroke-opacity:1"
       d="m 79.776192,117.6232 c 0,0 14.104744,-3.38935 19.087791,-6.99256 5.132467,-3.71125 8.580757,-8.26341 8.882437,-13.98512 0.11717,-2.222212 -3.79147,-7.773255 -9.614427,-13.076695"
       id="path109-6-2"
       inkscape:connector-curvature="0" />
    <path
       transform="translate(0,-87.000001)"
       style="display:inline;fill:none;stroke:#000000;stroke-width:1.41111112;stroke-linecap:round;stroke-linejoin:miter;stroke-miterlimit:4;stroke-dasharray:none;stroke-opacity:1"
       d="m 55.324792,186.35041 c -4.009043,-0.26727 -5.34539,2.00452 -7.216277,5.21175"
       id="path4961"
       inkscape:connector-curvature="0" />
    <path
       transform="translate(0,-87.000001)"
       style="display:inline;opacity:1;vector-effect:none;fill:none;fill-opacity:1;stroke:#000000;stroke-width:1.41111112;stroke-linecap:round;stroke-linejoin:miter;stroke-miterlimit:4;stroke-dasharray:none;stroke-dashoffset:0;stroke-opacity:1"
       d="m 52.652096,187.01858 c 0,0 5.292642,3.71957 8.395824,4.77704 8.034836,2.73802 20.658736,4.74444 29.521476,-0.72353 5.8652,-3.6186 6.31581,-4.58805 8.45396,-7.52801"
       id="path4963"
       inkscape:connector-curvature="0"
       sodipodi:nodetypes="cssc" />
    <path
       transform="translate(0,-87.000001)"
       style="display:inline;fill:none;stroke:#000000;stroke-width:1.41111112;stroke-linecap:round;stroke-linejoin:miter;stroke-miterlimit:4;stroke-dasharray:none;stroke-opacity:1"
       d="m 96.832356,182.74783 c 2.45685,-0.47248 3.543534,0.33072 3.638024,1.03943"
       id="path4969"
       inkscape:connector-curvature="0" />
    <path
       transform="translate(0,-87.000001)"
       style="display:inline;fill:#000000;stroke:#000000;stroke-width:1.41111112;stroke-linecap:butt;stroke-linejoin:miter;stroke-miterlimit:4;stroke-dasharray:none;stroke-opacity:1"
       d="m 70.137786,180.85794 c -0.86625,-0.11262 0.29206,-0.99195 0.70871,-1.03943 0.83051,-0.0947 1.84263,1.70089 1.84263,1.70089 z"
       id="path5015"
       inkscape:connector-curvature="0"
       sodipodi:nodetypes="cscc" />
    <path
       transform="translate(0,-87.000001)"
       style="display:inline;fill:#000000;stroke:#000000;stroke-width:1.41111112;stroke-linecap:butt;stroke-linejoin:miter;stroke-miterlimit:4;stroke-dasharray:none;stroke-opacity:1"
       d="m 76.374396,181.28317 c 0,0 -0.37798,-2.03163 0.8032,-1.65365 1.18118,0.37798 -0.8032,1.65365 -0.8032,1.65365 z"
       id="path5017"
       inkscape:connector-curvature="0" />
    <path
       transform="translate(0,-87.000001)"
       style="display:inline;fill:none;stroke:#000000;stroke-width:1.41111112;stroke-linecap:round;stroke-linejoin:round;stroke-miterlimit:4;stroke-dasharray:none;stroke-opacity:1"
       d="m 55.20773,180.99969 c 0,0 7.087055,-2.45685 14.221356,-3.63802"
       id="path5019"
       inkscape:connector-curvature="0"
       sodipodi:nodetypes="cc" />
    <path
       transform="translate(0,-87.000001)"
       style="display:inline;fill:none;stroke:#000000;stroke-width:1.41111112;stroke-linecap:round;stroke-linejoin:round;stroke-miterlimit:4;stroke-dasharray:none;stroke-opacity:1"
       d="m 80.768376,177.83413 c 0,0 7.51227,-1.03943 14.9773,-0.94494"
       id="path5021"
       inkscape:connector-curvature="0" />
    <path
       transform="translate(0,-87.000001)"
       style="display:inline;fill:none;fill-opacity:1;stroke:#000000;stroke-width:1.41111112;stroke-linecap:round;stroke-linejoin:round;stroke-miterlimit:4;stroke-dasharray:none;stroke-opacity:1"
       d="m 57.853563,180.10199 c 0,0 -3.827007,-0.47247 -4.393972,-4.25223 -0.566965,-3.77976 1.228421,-7.9375 5.480653,-9.35491 4.252233,-1.41741 10.259222,-2.0587 12.520462,3.16555 1.37016,3.16555 -0.85044,5.81137 -2.03162,7.70126 -3.874258,0.7087 -11.575523,2.74033 -11.575523,2.74033 z"
       id="path5023"
       inkscape:connector-curvature="0"
       sodipodi:nodetypes="cssscc" />
    <path
       transform="translate(0,-87.000001)"
       style="display:inline;fill:none;fill-opacity:1;stroke:#000000;stroke-width:1.41111112;stroke-linecap:round;stroke-linejoin:round;stroke-miterlimit:4;stroke-dasharray:none;stroke-opacity:1"
       d="m 85.115096,164.79396 c -3.84197,-0.16758 -7.74852,2.36235 -7.2288,7.46503 0.51972,5.10268 2.88208,5.57514 2.88208,5.57514 l 6.54371,-0.75595 6.82719,-0.28348 c 0,0 0.67519,-1.97113 -0.51972,-5.71689 -0.57606,-1.8058 -1.89164,-5.99542 -8.50446,-6.28385 z"
       id="path5025"
       inkscape:connector-curvature="0"
       sodipodi:nodetypes="sscccss" />
    <ellipse
       transform="translate(0,-87.000001)"
       style="display:inline;opacity:1;vector-effect:none;fill:#000000;fill-opacity:1;stroke:#000000;stroke-width:1.41111112;stroke-linecap:round;stroke-linejoin:round;stroke-miterlimit:4;stroke-dasharray:none;stroke-dashoffset:0;stroke-opacity:1"
       id="path5027"
       cx="62.058548"
       cy="173.01494"
       rx="3.0238097"
       ry="2.5513394" />
    <ellipse
       transform="translate(0,-87.000001)"
       style="display:inline;opacity:1;vector-effect:none;fill:#000000;fill-opacity:1;stroke:#000000;stroke-width:1.41111112;stroke-linecap:round;stroke-linejoin:round;stroke-miterlimit:4;stroke-dasharray:none;stroke-dashoffset:0;stroke-opacity:1"
       id="path5029"
       cx="85.46946"
       cy="172.25899"
       rx="2.2914805"
       ry="2.126116" />
    <path
       style="display:inline;opacity:1;vector-effect:none;fill:#000000;fill-opacity:1;stroke:#000000;stroke-width:5.33333349;stroke-linecap:butt;stroke-linejoin:miter;stroke-miterlimit:4;stroke-dasharray:none;stroke-dashoffset:0;stroke-opacity:1"
       d="m 342.30859,393.34375 c -11.97411,7.38757 -25.76613,11.15045 -39.93164,12.48242 4.86064,-0.29793 10.15413,-0.7674 15.85938,-1.51367 0,0 4.50783,-1.26798 7.45117,1.60352 -2.76291,2.69166 -7.07787,6.18529 -17.04883,9.80468 -14.00455,5.08354 -27.14312,5.17882 -44.10742,0.35742 -8.48211,-2.41069 -13.81126,-5.51281 -19.69922,-9.4414 3.03261,-2.26239 3.13103,-4.23132 9.79492,-3.6543 1.06869,0.0925 2.91315,0.31928 5.13282,0.60156 -10.5791,-1.90597 -20.48903,-4.59626 -29.02735,-7.50586 0,10e-6 7.89962,7.39088 13.58399,11.1836 5.88796,3.92859 11.21708,7.03071 19.69921,9.4414 16.9643,4.8214 30.10288,4.72612 44.10743,-0.35742 9.97096,-3.61939 12.43033,-5.52754 17.58398,-8.91211 4.62429,-3.03692 16.60156,-14.08984 16.60156,-14.08984 z m -39.93164,12.48242 c -6.42777,0.39399 -12.07742,0.48046 -16.71484,0.42774 -6.26755,-0.0712 -18.46292,-1.723 -25.89258,-2.66797 13.59419,2.44847 28.29084,3.58641 42.60742,2.24023 z"
       transform="scale(0.26458333)"
       id="path4963-2"
       inkscape:connector-curvature="0" />
    <path
       transform="translate(0,-87.000001)"
       style="display:inline;fill:none;stroke:#000000;stroke-width:1.41111112;stroke-linecap:round;stroke-linejoin:miter;stroke-miterlimit:4;stroke-dasharray:none;stroke-opacity:1"
       d="m 52.384827,166.17156 c 0,0 4.476765,-6.21402 16.503889,-7.88446"
       id="path5037"
       inkscape:connector-curvature="0"
       sodipodi:nodetypes="cc" />
    <path
       transform="translate(0,-87.000001)"
       style="display:inline;fill:none;stroke:#000000;stroke-width:1.41111112;stroke-linecap:round;stroke-linejoin:miter;stroke-miterlimit:4;stroke-dasharray:none;stroke-opacity:1"
       d="m 95.882936,163.96658 c 0,0 -1.40316,-1.33634 -3.07359,-2.40542"
       id="path5039"
       inkscape:connector-curvature="0"
       sodipodi:nodetypes="cc" />
    <path
       transform="translate(0,-87.000001)"
       style="display:inline;fill:none;stroke:#000000;stroke-width:1.41111112;stroke-linecap:round;stroke-linejoin:round;stroke-miterlimit:4;stroke-dasharray:none;stroke-opacity:1"
       d="m 46.986746,266.04433 c 0,0 4.913691,5.38616 15.780507,8.22098"
       id="path119-6"
       inkscape:connector-curvature="0" />
    <path
       transform="translate(0,-87.000001)"
       style="display:inline;fill:none;stroke:#000000;stroke-width:1.41111112;stroke-linecap:round;stroke-linejoin:round;stroke-miterlimit:4;stroke-dasharray:none;stroke-opacity:1"
       d="m 62.956242,255.74447 c 1.228421,3.49629 5.102678,3.11832 6.614584,3.30731"
       id="path121-2"
       inkscape:connector-curvature="0" />
    <path
       transform="translate(0,-87.000001)"
       style="display:inline;fill:none;stroke:#000000;stroke-width:1.41111112;stroke-linecap:round;stroke-linejoin:round;stroke-miterlimit:4;stroke-dasharray:none;stroke-opacity:1"
       d="m 65.03511,218.51382 c 0,0 -4.535715,0.56697 -9.638392,3.96875"
       id="path123-9"
       inkscape:connector-curvature="0" />
    <path
       transform="translate(0,-87.000001)"
       style="display:inline;fill:none;stroke:#000000;stroke-width:1.41111112;stroke-linecap:round;stroke-linejoin:round;stroke-miterlimit:4;stroke-dasharray:none;stroke-opacity:1"
       d="m 59.270975,224.27796 c 0,0 3.212795,-3.68527 13.040181,-5.00819"
       id="path125-1"
       inkscape:connector-curvature="0" />
    <path
       transform="translate(0,-87.000001)"
       style="display:inline;fill:none;stroke:#000000;stroke-width:1.41111112;stroke-linecap:round;stroke-linejoin:round;stroke-miterlimit:4;stroke-dasharray:none;stroke-opacity:1"
       d="m 65.129604,222.76605 c 0,0 6.142112,-4.06324 14.646582,-5.66964"
       id="path127-2"
       inkscape:connector-curvature="0" />
    <path
       transform="translate(0,-87.000001)"
       style="display:inline;fill:none;stroke:#000000;stroke-width:1.41111112;stroke-linecap:round;stroke-linejoin:round;stroke-miterlimit:4;stroke-dasharray:none;stroke-opacity:1"
       d="m 70.893746,223.23852 c 0,0 6.89806,-4.25223 10.20535,-4.25223"
       id="path129-7"
       inkscape:connector-curvature="0" />
    <path
       transform="translate(0,-87.000001)"
       style="display:inline;fill:#000000;stroke:#000000;stroke-width:1.41111112;stroke-linecap:butt;stroke-linejoin:miter;stroke-miterlimit:4;stroke-dasharray:none;stroke-opacity:1"
       d="m 66.169038,251.58674 c 2.078871,0 2.362358,1.41741 1.606399,2.07887 -0.755952,0.66145 1.039439,2.26785 -0.377976,2.26785 -1.41741,0 -1.41741,-0.94494 -1.606399,-1.79538 -0.188987,-0.85045 -3.96875,-1.79539 0.377976,-2.55134 z"
       id="path3999-0"
       inkscape:connector-curvature="0" />
  </g>
</svg>
