<?xml version="1.0" encoding="UTF-8" standalone="no"?>
<!DOCTYPE svg PUBLIC "-//W3C//DTD SVG 1.1//EN"
 "http://www.w3.org/Graphics/SVG/1.1/DTD/svg11.dtd">
<!-- Generated by graphviz version 2.38.0 (20140413.2041)
 -->
<!-- Title: G Pages: 1 -->
<svg width="1243pt" height="1157pt"
 viewBox="0.00 0.00 1243.00 1157.00" xmlns="http://www.w3.org/2000/svg" xmlns:xlink="http://www.w3.org/1999/xlink">
<g id="graph0" class="graph" transform="scale(1 1) rotate(0) translate(4 1153)">
<title>G</title>
<polygon fill="white" stroke="none" points="-4,4 -4,-1153 1239,-1153 1239,4 -4,4"/>
<!-- Mare -->
<g id="node1" class="node"><title>Mare</title>
<polygon fill="none" stroke="black" points="578.11,-660.183 524.11,-660.183 524.11,-624.183 578.11,-624.183 578.11,-660.183"/>
<text text-anchor="middle" x="551.11" y="-638.483" font-family="Times New Roman,serif" font-size="14.00">Mare</text>
</g>
<!-- Wiki -->
<g id="node2" class="node"><title>Wiki</title>
<g id="a_node2"><a xlink:href="https://wiki.crapaud-fou.org/Accueil" xlink:title="Wiki">
<polygon fill="none" stroke="blueviolet" points="462.098,-711.57 422.55,-693.57 462.098,-675.57 501.645,-693.57 462.098,-711.57"/>
<text text-anchor="middle" x="462.098" y="-689.87" font-family="Times New Roman,serif" font-size="14.00">Wiki</text>
</a>
</g>
</g>
<!-- Mare&#45;&gt;Wiki -->
<g id="edge1" class="edge"><title>Mare&#45;&gt;Wiki</title>
<path fill="none" stroke="black" d="M523.92,-657.88C512.656,-664.383 499.639,-671.898 488.463,-678.349"/>
<polygon fill="black" stroke="black" points="486.498,-675.442 479.588,-683.473 489.998,-681.505 486.498,-675.442"/>
</g>
<!-- Idee -->
<g id="node3" class="node"><title>Idee</title>
<g id="a_node3"><a xlink:href="https://idees.crapaud-fou.org/" xlink:title="Idee">
<polygon fill="none" stroke="gold" points="514.759,-755.587 476.887,-737.587 514.759,-719.587 552.631,-737.587 514.759,-755.587"/>
<text text-anchor="middle" x="514.759" y="-733.887" font-family="Times New Roman,serif" font-size="14.00">Idee</text>
</a>
</g>
</g>
<!-- Mare&#45;&gt;Idee -->
<g id="edge2" class="edge"><title>Mare&#45;&gt;Idee</title>
<path fill="none" stroke="black" d="M544.101,-660.578C538.463,-675.375 530.484,-696.316 524.27,-712.626"/>
<polygon fill="black" stroke="black" points="520.955,-711.495 520.665,-722.086 527.496,-713.988 520.955,-711.495"/>
</g>
<!-- Chat -->
<g id="node4" class="node"><title>Chat</title>
<g id="a_node4"><a xlink:href="https://coa.crapaud-fou.org/" xlink:title="Chat">
<polygon fill="none" stroke="aqua" points="633.84,-567.843 594.293,-549.843 633.84,-531.843 673.388,-549.843 633.84,-567.843"/>
<text text-anchor="middle" x="633.84" y="-546.143" font-family="Times New Roman,serif" font-size="14.00">Chat</text>
</a>
</g>
</g>
<!-- Mare&#45;&gt;Chat -->
<g id="edge3" class="edge"><title>Mare&#45;&gt;Chat</title>
<path fill="none" stroke="black" d="M567.455,-623.94C581.249,-608.543 600.99,-586.509 615.357,-570.473"/>
<polygon fill="black" stroke="black" points="618.254,-572.484 622.321,-562.7 613.041,-567.813 618.254,-572.484"/>
</g>
<!-- Democratie -->
<g id="node5" class="node"><title>Democratie</title>
<ellipse fill="none" stroke="red" cx="640.882" cy="-875.354" rx="85.5853" ry="18"/>
<text text-anchor="middle" x="640.882" y="-871.654" font-family="Times New Roman,serif" font-size="14.00">Tsunami Democratie</text>
</g>
<!-- Chat&#45;&gt;Democratie -->
<g id="edge4" class="edge"><title>Chat&#45;&gt;Democratie</title>
<path fill="none" stroke="black" d="M634.229,-567.807C635.392,-621.591 638.855,-781.639 640.269,-847.036"/>
<polygon fill="black" stroke="black" points="636.77,-847.122 640.486,-857.044 643.769,-846.97 636.77,-847.122"/>
</g>
<!-- Ecologie -->
<g id="node6" class="node"><title>Ecologie</title>
<ellipse fill="none" stroke="limegreen" cx="787.249" cy="-687.196" rx="76.0865" ry="18"/>
<text text-anchor="middle" x="787.249" y="-683.496" font-family="Times New Roman,serif" font-size="14.00">Tsunami Ecologie</text>
</g>
<!-- Chat&#45;&gt;Ecologie -->
<g id="edge5" class="edge"><title>Chat&#45;&gt;Ecologie</title>
<path fill="none" stroke="black" d="M647.186,-561.792C672.291,-584.269 726.993,-633.247 760.117,-662.904"/>
<polygon fill="black" stroke="black" points="757.857,-665.578 767.641,-669.641 762.526,-660.363 757.857,-665.578"/>
</g>
<!-- Technologie -->
<g id="node7" class="node"><title>Technologie</title>
<ellipse fill="none" stroke="dimgrey" cx="874.827" cy="-507.788" rx="89.0842" ry="18"/>
<text text-anchor="middle" x="874.827" y="-504.088" font-family="Times New Roman,serif" font-size="14.00">Tsunami Technologie</text>
</g>
<!-- Chat&#45;&gt;Technologie -->
<g id="edge6" class="edge"><title>Chat&#45;&gt;Technologie</title>
<path fill="none" stroke="black" d="M662.431,-544.853C695.477,-539.086 751.229,-529.357 797.322,-521.313"/>
<polygon fill="black" stroke="black" points="798.05,-524.739 807.3,-519.572 796.847,-517.843 798.05,-524.739"/>
</g>
<!-- Cohorte -->
<g id="node8" class="node"><title>Cohorte</title>
<ellipse fill="none" stroke="black" cx="707.809" cy="-241.812" rx="40.0939" ry="18"/>
<text text-anchor="middle" x="707.809" y="-238.112" font-family="Times New Roman,serif" font-size="14.00">Cohorte</text>
</g>
<!-- Chat&#45;&gt;Cohorte -->
<g id="edge7" class="edge"><title>Chat&#45;&gt;Cohorte</title>
<path fill="none" stroke="black" d="M637.817,-533.282C649.845,-483.195 685.934,-332.905 701.042,-269.992"/>
<polygon fill="black" stroke="black" points="704.512,-270.528 703.444,-259.987 697.706,-268.894 704.512,-270.528"/>
</g>
<!-- Global -->
<g id="node9" class="node"><title>Global</title>
<ellipse fill="none" stroke="darkorange" cx="374.567" cy="-532.868" rx="35.194" ry="18"/>
<text text-anchor="middle" x="374.567" y="-529.168" font-family="Times New Roman,serif" font-size="14.00">Global</text>
</g>
<!-- Chat&#45;&gt;Global -->
<g id="edge8" class="edge"><title>Chat&#45;&gt;Global</title>
<path fill="none" stroke="black" d="M599.142,-547.571C552.798,-544.537 470.619,-539.157 419.561,-535.814"/>
<polygon fill="black" stroke="black" points="419.681,-532.315 409.473,-535.154 419.223,-539.3 419.681,-532.315"/>
</g>
<!-- cercle_collaboratif -->
<g id="node29" class="node"><title>cercle_collaboratif</title>
<g id="a_node29"><a xlink:href="http://coa.crapaud-fou.org/channel/cercle-collaboratif" xlink:title="cercle&#45;collaboratif">
<text text-anchor="middle" x="879.12" y="-1042.67" font-family="Times New Roman,serif" font-size="14.00">cercle&#45;collaboratif</text>
</a>
</g>
</g>
<!-- Democratie&#45;&gt;cercle_collaboratif -->
<g id="edge28" class="edge"><title>Democratie&#45;&gt;cercle_collaboratif</title>
<path fill="none" stroke="red" d="M665.037,-892.694C707.777,-923.375 796.805,-987.284 845.509,-1022.25"/>
<polygon fill="red" stroke="red" points="843.662,-1025.23 853.826,-1028.22 847.744,-1019.54 843.662,-1025.23"/>
</g>
<!-- cercle_diversite_culturelle -->
<g id="node31" class="node"><title>cercle_diversite_culturelle</title>
<g id="a_node31"><a xlink:href="http://coa.crapaud-fou.org/channel/cercle-diversité-culturelle" xlink:title="cercle&#45;diversité&#45;culturelle">
<text text-anchor="middle" x="361.162" y="-909.474" font-family="Times New Roman,serif" font-size="14.00">cercle&#45;diversité&#45;culturelle</text>
</a>
</g>
</g>
<!-- Democratie&#45;&gt;cercle_diversite_culturelle -->
<g id="edge30" class="edge"><title>Democratie&#45;&gt;cercle_diversite_culturelle</title>
<path fill="none" stroke="red" d="M568.483,-885.143C532.077,-890.065 487.652,-896.072 449.277,-901.26"/>
<polygon fill="red" stroke="red" points="448.585,-897.822 439.144,-902.63 449.523,-904.759 448.585,-897.822"/>
</g>
<!-- cercle_democratie -->
<g id="node32" class="node"><title>cercle_democratie</title>
<g id="a_node32"><a xlink:href="http://coa.crapaud-fou.org/channel/cercle-démocratie" xlink:title="cercle&#45;démocratie">
<text text-anchor="middle" x="439.973" y="-953.63" font-family="Times New Roman,serif" font-size="14.00">cercle&#45;démocratie</text>
</a>
</g>
</g>
<!-- Democratie&#45;&gt;cercle_democratie -->
<g id="edge31" class="edge"><title>Democratie&#45;&gt;cercle_democratie</title>
<path fill="none" stroke="red" d="M601.189,-891.55C570.353,-904.132 527.281,-921.706 493.414,-935.525"/>
<polygon fill="red" stroke="red" points="492.06,-932.297 484.124,-939.315 494.705,-938.778 492.06,-932.297"/>
</g>
<!-- cercle_education -->
<g id="node33" class="node"><title>cercle_education</title>
<g id="a_node33"><a xlink:href="http://coa.crapaud-fou.org/channel/cercle-education" xlink:title="cercle&#45;education">
<text text-anchor="middle" x="529.748" y="-1083.04" font-family="Times New Roman,serif" font-size="14.00">cercle&#45;education</text>
</a>
</g>
</g>
<!-- Democratie&#45;&gt;cercle_education -->
<g id="edge32" class="edge"><title>Democratie&#45;&gt;cercle_education</title>
<path fill="none" stroke="red" d="M631.407,-893.377C611.895,-930.491 567.13,-1015.64 544.065,-1059.51"/>
<polygon fill="red" stroke="red" points="540.913,-1057.98 539.357,-1068.46 547.109,-1061.24 540.913,-1057.98"/>
</g>
<!-- cercle_enthousiasme -->
<g id="node35" class="node"><title>cercle_enthousiasme</title>
<g id="a_node35"><a xlink:href="http://coa.crapaud-fou.org/channel/cercle-enthousiasme" xlink:title="cercle&#45;enthousiasme">
<text text-anchor="middle" x="647.606" y="-1039.03" font-family="Times New Roman,serif" font-size="14.00">cercle&#45;enthousiasme</text>
</a>
</g>
</g>
<!-- Democratie&#45;&gt;cercle_enthousiasme -->
<g id="edge34" class="edge"><title>Democratie&#45;&gt;cercle_enthousiasme</title>
<path fill="none" stroke="red" d="M641.614,-893.585C642.782,-922.637 645.073,-979.669 646.459,-1014.17"/>
<polygon fill="red" stroke="red" points="642.976,-1014.67 646.875,-1024.52 649.97,-1014.39 642.976,-1014.67"/>
</g>
<!-- cercle_europe -->
<g id="node36" class="node"><title>cercle_europe</title>
<g id="a_node36"><a xlink:href="http://coa.crapaud-fou.org/channel/cercle-europe" xlink:title="cercle&#45;europe">
<text text-anchor="middle" x="766.181" y="-1015.13" font-family="Times New Roman,serif" font-size="14.00">cercle&#45;europe</text>
</a>
</g>
</g>
<!-- Democratie&#45;&gt;cercle_europe -->
<g id="edge35" class="edge"><title>Democratie&#45;&gt;cercle_europe</title>
<path fill="none" stroke="red" d="M656.498,-893.235C678.445,-918.365 718.54,-964.275 743.696,-993.081"/>
<polygon fill="red" stroke="red" points="741.154,-995.49 750.368,-1000.72 746.426,-990.886 741.154,-995.49"/>
</g>
<!-- cercle_permaculture -->
<g id="node42" class="node"><title>cercle_permaculture</title>
<g id="a_node42"><a xlink:href="http://coa.crapaud-fou.org/channel/cercle-permaculture" xlink:title="cercle&#45;permaculture">
<text text-anchor="middle" x="797.765" y="-841.016" font-family="Times New Roman,serif" font-size="14.00">cercle&#45;permaculture</text>
</a>
</g>
</g>
<!-- Democratie&#45;&gt;cercle_permaculture -->
<g id="edge41" class="edge"><title>Democratie&#45;&gt;cercle_permaculture</title>
<path fill="none" stroke="red" d="M703.788,-863.069C710.604,-861.738 717.583,-860.375 724.507,-859.023"/>
<polygon fill="red" stroke="red" points="725.445,-862.406 734.589,-857.054 724.103,-855.536 725.445,-862.406"/>
</g>
<!-- changer_de_paradigme -->
<g id="node48" class="node"><title>changer_de_paradigme</title>
<g id="a_node48"><a xlink:href="http://coa.crapaud-fou.org/channel/changer-de-paradigme" xlink:title="changer&#45;de&#45;paradigme">
<text text-anchor="middle" x="756.347" y="-791.999" font-family="Times New Roman,serif" font-size="14.00">changer&#45;de&#45;paradigme</text>
</a>
</g>
</g>
<!-- Democratie&#45;&gt;changer_de_paradigme -->
<g id="edge48" class="edge"><title>Democratie&#45;&gt;changer_de_paradigme</title>
<path fill="none" stroke="red" d="M665.936,-858.07C682.238,-846.824 703.723,-832.002 721.659,-819.629"/>
<polygon fill="red" stroke="red" points="723.896,-822.338 730.14,-813.779 719.921,-816.576 723.896,-822.338"/>
</g>
<!-- compagnon_du_devoir_educatif -->
<g id="node50" class="node"><title>compagnon_du_devoir_educatif</title>
<g id="a_node50"><a xlink:href="http://coa.crapaud-fou.org/channel/compagnon-du-devoir-educatif" xlink:title="compagnon&#45;du&#45;devoir&#45;educatif (projet)">
<text text-anchor="middle" x="662.343" y="-1127.08" font-family="Times New Roman,serif" font-size="14.00" fill="blue">compagnon&#45;du&#45;devoir&#45;educatif (projet)</text>
</a>
</g>
</g>
<!-- Democratie&#45;&gt;compagnon_du_devoir_educatif -->
<g id="edge51" class="edge"><title>Democratie&#45;&gt;compagnon_du_devoir_educatif</title>
<path fill="none" stroke="red" d="M642.425,-893.724C646.13,-937.815 655.545,-1049.87 659.973,-1102.58"/>
<polygon fill="red" stroke="red" points="656.488,-1102.91 660.813,-1112.58 663.464,-1102.32 656.488,-1102.91"/>
</g>
<!-- conf_inter_g -->
<g id="node51" class="node"><title>conf_inter_g</title>
<g id="a_node51"><a xlink:href="http://coa.crapaud-fou.org/channel/conf-inter-g" xlink:title="conf&#45;inter&#45;g (projet)">
<text text-anchor="middle" x="844.475" y="-894.331" font-family="Times New Roman,serif" font-size="14.00" fill="blue">conf&#45;inter&#45;g (projet)</text>
</a>
</g>
</g>
<!-- Democratie&#45;&gt;conf_inter_g -->
<g id="edge52" class="edge"><title>Democratie&#45;&gt;conf_inter_g</title>
<path fill="none" stroke="red" d="M716.693,-883.798C734.366,-885.767 753.158,-887.86 770.74,-889.818"/>
<polygon fill="red" stroke="red" points="770.608,-893.325 780.934,-890.954 771.383,-886.368 770.608,-893.325"/>
</g>
<!-- cooperatives -->
<g id="node52" class="node"><title>cooperatives</title>
<g id="a_node52"><a xlink:href="http://coa.crapaud-fou.org/channel/cooperatives" xlink:title="cooperatives">
<text text-anchor="middle" x="550.205" y="-995.008" font-family="Times New Roman,serif" font-size="14.00">cooperatives</text>
</a>
</g>
</g>
<!-- Democratie&#45;&gt;cooperatives -->
<g id="edge54" class="edge"><title>Democratie&#45;&gt;cooperatives</title>
<path fill="none" stroke="red" d="M627.697,-893.291C612.473,-914.001 587.284,-948.267 569.773,-972.088"/>
<polygon fill="red" stroke="red" points="566.805,-970.217 563.702,-980.347 572.445,-974.363 566.805,-970.217"/>
</g>
<!-- economie_connaissance -->
<g id="node54" class="node"><title>economie_connaissance</title>
<g id="a_node54"><a xlink:href="http://coa.crapaud-fou.org/channel/economie-connaissance" xlink:title="economie&#45;connaissance">
<text text-anchor="middle" x="927.272" y="-998.646" font-family="Times New Roman,serif" font-size="14.00">economie&#45;connaissance</text>
</a>
</g>
</g>
<!-- Democratie&#45;&gt;economie_connaissance -->
<g id="edge56" class="edge"><title>Democratie&#45;&gt;economie_connaissance</title>
<path fill="none" stroke="red" d="M677.736,-891.696C728.539,-914.223 820.253,-954.891 877.222,-980.152"/>
<polygon fill="red" stroke="red" points="875.84,-983.368 886.4,-984.222 878.677,-976.969 875.84,-983.368"/>
</g>
<!-- cercle_autonomie_energetique -->
<g id="node27" class="node"><title>cercle_autonomie_energetique</title>
<g id="a_node27"><a xlink:href="http://coa.crapaud-fou.org/channel/cercle-autonomie-energetique" xlink:title="cercle&#45;autonomie&#45;energetique">
<text text-anchor="middle" x="1145.52" y="-725.432" font-family="Times New Roman,serif" font-size="14.00">cercle&#45;autonomie&#45;energetique</text>
</a>
</g>
</g>
<!-- Ecologie&#45;&gt;cercle_autonomie_energetique -->
<g id="edge26" class="edge"><title>Ecologie&#45;&gt;cercle_autonomie_energetique</title>
<path fill="none" stroke="limegreen" d="M855.48,-695.183C909.329,-701.486 985.223,-710.369 1045.87,-717.468"/>
<polygon fill="limegreen" stroke="limegreen" points="1045.51,-720.95 1055.85,-718.636 1046.32,-713.997 1045.51,-720.95"/>
</g>
<!-- Ecologie&#45;&gt;cercle_permaculture -->
<g id="edge42" class="edge"><title>Ecologie&#45;&gt;cercle_permaculture</title>
<path fill="none" stroke="limegreen" d="M788.455,-705.266C790.268,-732.42 793.711,-783.994 795.864,-816.241"/>
<polygon fill="limegreen" stroke="limegreen" points="792.382,-816.628 796.54,-826.372 799.366,-816.161 792.382,-816.628"/>
</g>
<!-- cercle_sante -->
<g id="node43" class="node"><title>cercle_sante</title>
<g id="a_node43"><a xlink:href="http://coa.crapaud-fou.org/channel/cercle-sante" xlink:title="cercle&#45;sante">
<text text-anchor="middle" x="1030.77" y="-815.561" font-family="Times New Roman,serif" font-size="14.00">cercle&#45;sante</text>
</a>
</g>
</g>
<!-- Ecologie&#45;&gt;cercle_sante -->
<g id="edge43" class="edge"><title>Ecologie&#45;&gt;cercle_sante</title>
<path fill="none" stroke="limegreen" d="M818.091,-703.922C861.256,-727.331 939.839,-769.947 988.449,-796.308"/>
<polygon fill="limegreen" stroke="limegreen" points="986.997,-799.503 997.456,-801.193 990.334,-793.349 986.997,-799.503"/>
</g>
<!-- burn_out -->
<g id="node46" class="node"><title>burn_out</title>
<g id="a_node46"><a xlink:href="http://coa.crapaud-fou.org/channel/burn-out" xlink:title="burn&#45;out">
<text text-anchor="middle" x="948.655" y="-859.232" font-family="Times New Roman,serif" font-size="14.00">burn&#45;out</text>
</a>
</g>
</g>
<!-- Ecologie&#45;&gt;burn_out -->
<g id="edge46" class="edge"><title>Ecologie&#45;&gt;burn_out</title>
<path fill="none" stroke="limegreen" d="M803.613,-705.014C832.299,-736.247 891.761,-800.988 924.95,-837.123"/>
<polygon fill="limegreen" stroke="limegreen" points="922.663,-839.807 932.005,-844.804 927.818,-835.072 922.663,-839.807"/>
</g>
<!-- cause_animale -->
<g id="node47" class="node"><title>cause_animale</title>
<g id="a_node47"><a xlink:href="http://coa.crapaud-fou.org/channel/cause-animale" xlink:title="cause&#45;animale">
<text text-anchor="middle" x="1067.43" y="-771.532" font-family="Times New Roman,serif" font-size="14.00">cause&#45;animale</text>
</a>
</g>
</g>
<!-- Ecologie&#45;&gt;cause_animale -->
<g id="edge47" class="edge"><title>Ecologie&#45;&gt;cause_animale</title>
<path fill="none" stroke="limegreen" d="M833.202,-701.635C881.624,-716.849 957.974,-740.839 1010.26,-757.266"/>
<polygon fill="limegreen" stroke="limegreen" points="1009.46,-760.685 1020.05,-760.344 1011.56,-754.007 1009.46,-760.685"/>
</g>
<!-- Ecologie&#45;&gt;changer_de_paradigme -->
<g id="edge49" class="edge"><title>Ecologie&#45;&gt;changer_de_paradigme</title>
<path fill="none" stroke="limegreen" d="M782.007,-705.602C777.161,-722.617 769.89,-748.147 764.324,-767.691"/>
<polygon fill="limegreen" stroke="limegreen" points="760.885,-766.988 761.512,-777.565 767.617,-768.906 760.885,-766.988"/>
</g>
<!-- Ecologie&#45;&gt;conf_inter_g -->
<g id="edge53" class="edge"><title>Ecologie&#45;&gt;conf_inter_g</title>
<path fill="none" stroke="limegreen" d="M792.128,-705.172C802.112,-741.956 824.937,-826.047 836.878,-870.039"/>
<polygon fill="limegreen" stroke="limegreen" points="833.53,-871.067 839.527,-879.801 840.286,-869.234 833.53,-871.067"/>
</g>
<!-- creation_ferme_pedagogique_secteur_france_sud_ouest_albi -->
<g id="node53" class="node"><title>creation_ferme_pedagogique_secteur_france_sud_ouest_albi</title>
<g id="a_node53"><a xlink:href="http://coa.crapaud-fou.org/channel/creation-ferme-pedagogique-secteur-france-sud-ouest-albi" xlink:title="creation&#45;ferme&#45;pedagogique&#45;secteur&#45;france&#45;sud&#45;ouest&#45;albi">
<text text-anchor="middle" x="878.152" y="-727.51" font-family="Times New Roman,serif" font-size="14.00">creation&#45;ferme&#45;pedagogique&#45;secteur&#45;france&#45;sud&#45;ouest&#45;albi</text>
</a>
</g>
</g>
<!-- Ecologie&#45;&gt;creation_ferme_pedagogique_secteur_france_sud_ouest_albi -->
<g id="edge55" class="edge"><title>Ecologie&#45;&gt;creation_ferme_pedagogique_secteur_france_sud_ouest_albi</title>
<path fill="none" stroke="limegreen" d="M820.84,-703.46C824.38,-705.174 828.023,-706.939 831.676,-708.707"/>
<polygon fill="limegreen" stroke="limegreen" points="830.193,-711.878 840.719,-713.086 833.244,-705.577 830.193,-711.878"/>
</g>
<!-- energie -->
<g id="node55" class="node"><title>energie</title>
<g id="a_node55"><a xlink:href="http://coa.crapaud-fou.org/channel/energie" xlink:title="energie">
<text text-anchor="middle" x="1029.46" y="-674.273" font-family="Times New Roman,serif" font-size="14.00">energie</text>
</a>
</g>
</g>
<!-- Ecologie&#45;&gt;energie -->
<g id="edge57" class="edge"><title>Ecologie&#45;&gt;energie</title>
<path fill="none" stroke="limegreen" d="M862.557,-684.328C905.22,-682.704 956.776,-680.741 991.192,-679.43"/>
<polygon fill="limegreen" stroke="limegreen" points="991.434,-682.923 1001.29,-679.045 991.168,-675.928 991.434,-682.923"/>
</g>
<!-- cercle_blockchain_crypto -->
<g id="node28" class="node"><title>cercle_blockchain_crypto</title>
<g id="a_node28"><a xlink:href="http://coa.crapaud-fou.org/channel/cercle-blockchain-crypto" xlink:title="cercle&#45;blockchain&#45;crypto">
<text text-anchor="middle" x="1065.08" y="-413.612" font-family="Times New Roman,serif" font-size="14.00">cercle&#45;blockchain&#45;crypto</text>
</a>
</g>
</g>
<!-- Technologie&#45;&gt;cercle_blockchain_crypto -->
<g id="edge27" class="edge"><title>Technologie&#45;&gt;cercle_blockchain_crypto</title>
<path fill="none" stroke="dimgrey" d="M909.723,-491.193C940.12,-476.737 984.456,-455.653 1017.99,-439.705"/>
<polygon fill="dimgrey" stroke="dimgrey" points="1019.62,-442.808 1027.14,-435.353 1016.61,-436.487 1019.62,-442.808"/>
</g>
<!-- cercle_electronique -->
<g id="node34" class="node"><title>cercle_electronique</title>
<g id="a_node34"><a xlink:href="http://coa.crapaud-fou.org/channel/cercle-electronique" xlink:title="cercle&#45;electronique">
<text text-anchor="middle" x="1068.41" y="-465.881" font-family="Times New Roman,serif" font-size="14.00">cercle&#45;electronique</text>
</a>
</g>
</g>
<!-- Technologie&#45;&gt;cercle_electronique -->
<g id="edge33" class="edge"><title>Technologie&#45;&gt;cercle_electronique</title>
<path fill="none" stroke="dimgrey" d="M938.752,-495.172C957.509,-491.47 978.134,-487.399 997.31,-483.615"/>
<polygon fill="dimgrey" stroke="dimgrey" points="998.054,-487.035 1007.19,-481.665 996.699,-480.168 998.054,-487.035"/>
</g>
<!-- cercle_genie_digital -->
<g id="node39" class="node"><title>cercle_genie_digital</title>
<g id="a_node39"><a xlink:href="http://coa.crapaud-fou.org/channel/cercle-genie-digital" xlink:title="cercle&#45;genie&#45;digital">
<text text-anchor="middle" x="1067.69" y="-519.185" font-family="Times New Roman,serif" font-size="14.00">cercle&#45;genie&#45;digital</text>
</a>
</g>
</g>
<!-- Technologie&#45;&gt;cercle_genie_digital -->
<g id="edge38" class="edge"><title>Technologie&#45;&gt;cercle_genie_digital</title>
<path fill="none" stroke="dimgrey" d="M958.018,-514.3C971.131,-515.326 984.576,-516.379 997.36,-517.379"/>
<polygon fill="dimgrey" stroke="dimgrey" points="997.208,-520.878 1007.45,-518.169 997.755,-513.899 997.208,-520.878"/>
</g>
<!-- cohorte_2607 -->
<g id="node10" class="node"><title>cohorte_2607</title>
<g id="a_node10"><a xlink:href="http://coa.crapaud-fou.org/channel/cohorte-2607" xlink:title="cohorte&#45;2607">
<text text-anchor="middle" x="838.923" y="-76.7712" font-family="Times New Roman,serif" font-size="14.00">cohorte&#45;2607</text>
</a>
</g>
</g>
<!-- Cohorte&#45;&gt;cohorte_2607 -->
<g id="edge9" class="edge"><title>Cohorte&#45;&gt;cohorte_2607</title>
<path fill="none" stroke="black" d="M721.592,-224.85C744.504,-196.657 790.578,-139.961 817.673,-106.621"/>
<polygon fill="black" stroke="black" points="820.536,-108.647 824.126,-98.6788 815.104,-104.232 820.536,-108.647"/>
</g>
<!-- cohorte_34 -->
<g id="node11" class="node"><title>cohorte_34</title>
<g id="a_node11"><a xlink:href="http://coa.crapaud-fou.org/channel/cohorte-34" xlink:title="cohorte&#45;34">
<text text-anchor="middle" x="716.624" y="-94.0587" font-family="Times New Roman,serif" font-size="14.00">cohorte&#45;34</text>
</a>
</g>
</g>
<!-- Cohorte&#45;&gt;cohorte_34 -->
<g id="edge10" class="edge"><title>Cohorte&#45;&gt;cohorte_34</title>
<path fill="none" stroke="black" d="M708.925,-223.567C710.429,-198.997 713.12,-155.027 714.888,-126.123"/>
<polygon fill="black" stroke="black" points="718.399,-126.05 715.517,-115.855 711.412,-125.622 718.399,-126.05"/>
</g>
<!-- cohorte_5962 -->
<g id="node12" class="node"><title>cohorte_5962</title>
<g id="a_node12"><a xlink:href="http://coa.crapaud-fou.org/channel/cohorte-5962" xlink:title="cohorte&#45;5962">
<text text-anchor="middle" x="833.84" y="-203.201" font-family="Times New Roman,serif" font-size="14.00">cohorte&#45;5962</text>
</a>
</g>
</g>
<!-- Cohorte&#45;&gt;cohorte_5962 -->
<g id="edge11" class="edge"><title>Cohorte&#45;&gt;cohorte_5962</title>
<path fill="none" stroke="black" d="M742.247,-232.272C753.404,-229.182 766.077,-225.672 778.362,-222.269"/>
<polygon fill="black" stroke="black" points="779.392,-225.615 788.095,-219.573 777.523,-218.869 779.392,-225.615"/>
</g>
<!-- cohorte_belgique -->
<g id="node13" class="node"><title>cohorte_belgique</title>
<g id="a_node13"><a xlink:href="http://coa.crapaud-fou.org/channel/cohorte-belgique" xlink:title="cohorte&#45;belgique">
<text text-anchor="middle" x="878.178" y="-291.21" font-family="Times New Roman,serif" font-size="14.00">cohorte&#45;belgique</text>
</a>
</g>
</g>
<!-- Cohorte&#45;&gt;cohorte_belgique -->
<g id="edge12" class="edge"><title>Cohorte&#45;&gt;cohorte_belgique</title>
<path fill="none" stroke="black" d="M741.062,-252.176C761.579,-258.57 788.596,-266.99 813.22,-274.665"/>
<polygon fill="black" stroke="black" points="812.29,-278.041 822.879,-277.675 814.373,-271.358 812.29,-278.041"/>
</g>
<!-- cohorte_bourgogne -->
<g id="node14" class="node"><title>cohorte_bourgogne</title>
<g id="a_node14"><a xlink:href="http://coa.crapaud-fou.org/channel/cohorte-bourgogne" xlink:title="cohorte&#45;bourgogne">
<text text-anchor="middle" x="942.563" y="-120.785" font-family="Times New Roman,serif" font-size="14.00">cohorte&#45;bourgogne</text>
</a>
</g>
</g>
<!-- Cohorte&#45;&gt;cohorte_bourgogne -->
<g id="edge13" class="edge"><title>Cohorte&#45;&gt;cohorte_bourgogne</title>
<path fill="none" stroke="black" d="M734.738,-228.353C774.451,-208.505 849.214,-171.139 897.407,-147.053"/>
<polygon fill="black" stroke="black" points="898.997,-150.171 906.377,-142.57 895.868,-143.91 898.997,-150.171"/>
</g>
<!-- cohorte_bretagne -->
<g id="node15" class="node"><title>cohorte_bretagne</title>
<g id="a_node15"><a xlink:href="http://coa.crapaud-fou.org/channel/cohorte-bretagne" xlink:title="cohorte&#45;bretagne">
<text text-anchor="middle" x="488.257" y="-103.253" font-family="Times New Roman,serif" font-size="14.00">cohorte&#45;bretagne</text>
</a>
</g>
</g>
<!-- Cohorte&#45;&gt;cohorte_bretagne -->
<g id="edge14" class="edge"><title>Cohorte&#45;&gt;cohorte_bretagne</title>
<path fill="none" stroke="black" d="M683.895,-227.123C645.969,-203.827 571.691,-158.202 526.366,-130.361"/>
<polygon fill="black" stroke="black" points="528.06,-127.294 517.707,-125.042 524.396,-133.259 528.06,-127.294"/>
</g>
<!-- cohorte_geek -->
<g id="node16" class="node"><title>cohorte_geek</title>
<g id="a_node16"><a xlink:href="http://coa.crapaud-fou.org/channel/cohorte-geek" xlink:title="cohorte&#45;geek">
<text text-anchor="middle" x="593.592" y="-58.446" font-family="Times New Roman,serif" font-size="14.00">cohorte&#45;geek</text>
</a>
</g>
</g>
<!-- Cohorte&#45;&gt;cohorte_geek -->
<g id="edge15" class="edge"><title>Cohorte&#45;&gt;cohorte_geek</title>
<path fill="none" stroke="black" d="M696.649,-224.257C676.623,-192.756 634.467,-126.444 610.746,-89.1287"/>
<polygon fill="black" stroke="black" points="613.455,-86.8668 605.137,-80.3055 607.548,-90.6223 613.455,-86.8668"/>
</g>
<!-- cohorte_grand_est -->
<g id="node17" class="node"><title>cohorte_grand_est</title>
<g id="a_node17"><a xlink:href="http://coa.crapaud-fou.org/channel/cohorte-grand-est" xlink:title="cohorte&#45;grand&#45;est">
<text text-anchor="middle" x="505.98" y="-164.917" font-family="Times New Roman,serif" font-size="14.00">cohorte&#45;grand&#45;est</text>
</a>
</g>
</g>
<!-- Cohorte&#45;&gt;cohorte_grand_est -->
<g id="edge16" class="edge"><title>Cohorte&#45;&gt;cohorte_grand_est</title>
<path fill="none" stroke="black" d="M676.273,-230.375C646.657,-219.635 601.589,-203.29 565.255,-190.114"/>
<polygon fill="black" stroke="black" points="566.335,-186.782 555.741,-186.663 563.948,-193.363 566.335,-186.782"/>
</g>
<!-- cohorte_grenoble -->
<g id="node18" class="node"><title>cohorte_grenoble</title>
<g id="a_node18"><a xlink:href="http://coa.crapaud-fou.org/channel/cohorte-grenoble" xlink:title="cohorte&#45;grenoble">
<text text-anchor="middle" x="925.48" y="-247.203" font-family="Times New Roman,serif" font-size="14.00">cohorte&#45;grenoble</text>
</a>
</g>
</g>
<!-- Cohorte&#45;&gt;cohorte_grenoble -->
<g id="edge17" class="edge"><title>Cohorte&#45;&gt;cohorte_grenoble</title>
<path fill="none" stroke="black" d="M747.987,-243.49C779.09,-244.789 822.837,-246.616 859.116,-248.132"/>
<polygon fill="black" stroke="black" points="858.997,-251.63 869.134,-248.55 859.289,-244.636 858.997,-251.63"/>
</g>
<!-- cohorte_lille -->
<g id="node19" class="node"><title>cohorte_lille</title>
<g id="a_node19"><a xlink:href="http://coa.crapaud-fou.org/channel/cohorte-lille" xlink:title="cohorte&#45;lille">
<text text-anchor="middle" x="808.747" y="-123.771" font-family="Times New Roman,serif" font-size="14.00">cohorte&#45;lille</text>
</a>
</g>
</g>
<!-- Cohorte&#45;&gt;cohorte_lille -->
<g id="edge18" class="edge"><title>Cohorte&#45;&gt;cohorte_lille</title>
<path fill="none" stroke="black" d="M722.702,-224.94C739.406,-206.019 766.688,-175.114 786.05,-153.181"/>
<polygon fill="black" stroke="black" points="788.797,-155.358 792.791,-145.545 783.549,-150.726 788.797,-155.358"/>
</g>
<!-- cohorte_normandie -->
<g id="node20" class="node"><title>cohorte_normandie</title>
<g id="a_node20"><a xlink:href="http://coa.crapaud-fou.org/channel/cohorte-normandie" xlink:title="cohorte&#45;normandie">
<text text-anchor="middle" x="812.912" y="-335.21" font-family="Times New Roman,serif" font-size="14.00">cohorte&#45;normandie</text>
</a>
</g>
</g>
<!-- Cohorte&#45;&gt;cohorte_normandie -->
<g id="edge19" class="edge"><title>Cohorte&#45;&gt;cohorte_normandie</title>
<path fill="none" stroke="black" d="M725.638,-258.283C742.11,-273.501 766.82,-296.329 785.748,-313.814"/>
<polygon fill="black" stroke="black" points="783.484,-316.488 793.205,-320.703 788.234,-311.347 783.484,-316.488"/>
</g>
<!-- cohorte_paca -->
<g id="node21" class="node"><title>cohorte_paca</title>
<g id="a_node21"><a xlink:href="http://coa.crapaud-fou.org/channel/cohorte-paca" xlink:title="cohorte&#45;paca">
<text text-anchor="middle" x="760.103" y="-32.7539" font-family="Times New Roman,serif" font-size="14.00">cohorte&#45;paca</text>
</a>
</g>
</g>
<!-- Cohorte&#45;&gt;cohorte_paca -->
<g id="edge20" class="edge"><title>Cohorte&#45;&gt;cohorte_paca</title>
<path fill="none" stroke="black" d="M712.449,-223.588C721.617,-187.586 742.103,-107.139 752.988,-64.3952"/>
<polygon fill="black" stroke="black" points="756.397,-65.1917 755.473,-54.6372 749.613,-63.4642 756.397,-65.1917"/>
</g>
<!-- cohorte_paris -->
<g id="node22" class="node"><title>cohorte_paris</title>
<g id="a_node22"><a xlink:href="http://coa.crapaud-fou.org/channel/cohorte-paris" xlink:title="cohorte&#45;paris">
<text text-anchor="middle" x="661.497" y="-14.1669" font-family="Times New Roman,serif" font-size="14.00">cohorte&#45;paris</text>
</a>
</g>
</g>
<!-- Cohorte&#45;&gt;cohorte_paris -->
<g id="edge21" class="edge"><title>Cohorte&#45;&gt;cohorte_paris</title>
<path fill="none" stroke="black" d="M704.097,-223.864C696.052,-184.962 676.957,-92.6255 667.301,-45.9336"/>
<polygon fill="black" stroke="black" points="670.679,-44.9841 665.226,-35.9002 663.824,-46.4018 670.679,-44.9841"/>
</g>
<!-- cohorte_paysdesavoie -->
<g id="node23" class="node"><title>cohorte_paysdesavoie</title>
<g id="a_node23"><a xlink:href="http://coa.crapaud-fou.org/channel/cohorte-paysdesavoie" xlink:title="cohorte&#45;paysdesavoie">
<text text-anchor="middle" x="529.113" y="-264.367" font-family="Times New Roman,serif" font-size="14.00">cohorte&#45;paysdesavoie</text>
</a>
</g>
</g>
<!-- Cohorte&#45;&gt;cohorte_paysdesavoie -->
<g id="edge22" class="edge"><title>Cohorte&#45;&gt;cohorte_paysdesavoie</title>
<path fill="none" stroke="black" d="M669.474,-247.444C651.679,-250.059 629.824,-253.27 608.705,-256.373"/>
<polygon fill="black" stroke="black" points="608.131,-252.92 598.746,-257.836 609.149,-259.845 608.131,-252.92"/>
</g>
<!-- cohorte_scientifque -->
<g id="node24" class="node"><title>cohorte_scientifque</title>
<g id="a_node24"><a xlink:href="http://coa.crapaud-fou.org/channel/cohorte-scientifque" xlink:title="cohorte&#45;scientifque">
<text text-anchor="middle" x="490.162" y="-208.929" font-family="Times New Roman,serif" font-size="14.00">cohorte&#45;scientifque</text>
</a>
</g>
</g>
<!-- Cohorte&#45;&gt;cohorte_scientifque -->
<g id="edge23" class="edge"><title>Cohorte&#45;&gt;cohorte_scientifque</title>
<path fill="none" stroke="black" d="M669.149,-236.628C639.686,-232.678 598.262,-227.123 562.685,-222.353"/>
<polygon fill="black" stroke="black" points="562.713,-218.826 552.337,-220.966 561.783,-225.764 562.713,-218.826"/>
</g>
<!-- cohorte_sud_ouest -->
<g id="node25" class="node"><title>cohorte_sud_ouest</title>
<g id="a_node25"><a xlink:href="http://coa.crapaud-fou.org/channel/cohorte-sud-ouest" xlink:title="cohorte&#45;sud&#45;ouest">
<text text-anchor="middle" x="952.234" y="-164.826" font-family="Times New Roman,serif" font-size="14.00">cohorte&#45;sud&#45;ouest</text>
</a>
</g>
</g>
<!-- Cohorte&#45;&gt;cohorte_sud_ouest -->
<g id="edge24" class="edge"><title>Cohorte&#45;&gt;cohorte_sud_ouest</title>
<path fill="none" stroke="black" d="M741.282,-231.775C777.535,-220.906 836.391,-203.259 882.736,-189.363"/>
<polygon fill="black" stroke="black" points="883.849,-192.684 892.423,-186.459 881.839,-185.978 883.849,-192.684"/>
</g>
<!-- cohorte_suisse -->
<g id="node26" class="node"><title>cohorte_suisse</title>
<g id="a_node26"><a xlink:href="http://coa.crapaud-fou.org/channel/cohorte-suisse" xlink:title="cohorte&#45;suisse">
<text text-anchor="middle" x="621.084" y="-136.066" font-family="Times New Roman,serif" font-size="14.00">cohorte&#45;suisse</text>
</a>
</g>
</g>
<!-- Cohorte&#45;&gt;cohorte_suisse -->
<g id="edge25" class="edge"><title>Cohorte&#45;&gt;cohorte_suisse</title>
<path fill="none" stroke="black" d="M693.488,-224.961C679.826,-208.885 659.046,-184.434 643.246,-165.843"/>
<polygon fill="black" stroke="black" points="645.741,-163.375 636.598,-158.021 640.407,-167.908 645.741,-163.375"/>
</g>
<!-- cercle_des_arts -->
<g id="node30" class="node"><title>cercle_des_arts</title>
<g id="a_node30"><a xlink:href="http://coa.crapaud-fou.org/channel/cercle-des-arts" xlink:title="cercle&#45;des&#45;arts">
<text text-anchor="middle" x="258.505" y="-627.45" font-family="Times New Roman,serif" font-size="14.00">cercle&#45;des&#45;arts</text>
</a>
</g>
</g>
<!-- Global&#45;&gt;cercle_des_arts -->
<g id="edge29" class="edge"><title>Global&#45;&gt;cercle_des_arts</title>
<path fill="none" stroke="darkorange" d="M356.177,-548.442C337.813,-563.992 309.305,-588.133 287.819,-606.327"/>
<polygon fill="darkorange" stroke="darkorange" points="285.333,-603.846 279.964,-612.979 289.857,-609.188 285.333,-603.846"/>
</g>
<!-- cercle_game_changers -->
<g id="node37" class="node"><title>cercle_game_changers</title>
<g id="a_node37"><a xlink:href="http://coa.crapaud-fou.org/channel/cercle-game-changers" xlink:title="cercle&#45;game&#45;changers">
<text text-anchor="middle" x="259.639" y="-684.446" font-family="Times New Roman,serif" font-size="14.00">cercle&#45;game&#45;changers</text>
</a>
</g>
</g>
<!-- Global&#45;&gt;cercle_game_changers -->
<g id="edge36" class="edge"><title>Global&#45;&gt;cercle_game_changers</title>
<path fill="none" stroke="darkorange" d="M362.049,-549.782C342.076,-576.767 302.841,-629.776 279.158,-661.775"/>
<polygon fill="darkorange" stroke="darkorange" points="276.342,-659.696 273.206,-669.816 281.968,-663.861 276.342,-659.696"/>
</g>
<!-- cercle_generation_2050 -->
<g id="node38" class="node"><title>cercle_generation_2050</title>
<g id="a_node38"><a xlink:href="http://coa.crapaud-fou.org/channel/cercle-generation-2050" xlink:title="cercle&#45;generation&#45;2050">
<text text-anchor="middle" x="263.876" y="-400.707" font-family="Times New Roman,serif" font-size="14.00">cercle&#45;generation&#45;2050</text>
</a>
</g>
</g>
<!-- Global&#45;&gt;cercle_generation_2050 -->
<g id="edge37" class="edge"><title>Global&#45;&gt;cercle_generation_2050</title>
<path fill="none" stroke="darkorange" d="M360.323,-516.337C341.566,-494.569 308.38,-456.055 286.254,-430.378"/>
<polygon fill="darkorange" stroke="darkorange" points="288.671,-427.82 279.492,-422.529 283.368,-432.39 288.671,-427.82"/>
</g>
<!-- cercle_intergenerationnel -->
<g id="node40" class="node"><title>cercle_intergenerationnel</title>
<g id="a_node40"><a xlink:href="http://coa.crapaud-fou.org/channel/cercle-intergenerationnel" xlink:title="cercle&#45;intergenerationnel">
<text text-anchor="middle" x="168.162" y="-495.392" font-family="Times New Roman,serif" font-size="14.00">cercle&#45;intergenerationnel</text>
</a>
</g>
</g>
<!-- Global&#45;&gt;cercle_intergenerationnel -->
<g id="edge39" class="edge"><title>Global&#45;&gt;cercle_intergenerationnel</title>
<path fill="none" stroke="darkorange" d="M340.945,-527.367C317.237,-523.487 284.36,-518.107 253.642,-513.08"/>
<polygon fill="darkorange" stroke="darkorange" points="254.193,-509.624 243.759,-511.463 253.062,-516.532 254.193,-509.624"/>
</g>
<!-- cercle_neurodiversite -->
<g id="node41" class="node"><title>cercle_neurodiversite</title>
<g id="a_node41"><a xlink:href="http://coa.crapaud-fou.org/channel/cercle-neurodiversité" xlink:title="cercle&#45;neurodiversité">
<text text-anchor="middle" x="210.934" y="-444.723" font-family="Times New Roman,serif" font-size="14.00">cercle&#45;neurodiversité</text>
</a>
</g>
</g>
<!-- Global&#45;&gt;cercle_neurodiversite -->
<g id="edge40" class="edge"><title>Global&#45;&gt;cercle_neurodiversite</title>
<path fill="none" stroke="darkorange" d="M349.715,-520.043C324.678,-507.123 285.514,-486.911 255.165,-471.249"/>
<polygon fill="darkorange" stroke="darkorange" points="256.546,-468.023 246.055,-466.548 253.336,-474.244 256.546,-468.023"/>
</g>
<!-- agenda -->
<g id="node44" class="node"><title>agenda</title>
<g id="a_node44"><a xlink:href="http://coa.crapaud-fou.org/channel/agenda" xlink:title="agenda">
<text text-anchor="middle" x="378.031" y="-424.901" font-family="Times New Roman,serif" font-size="14.00">agenda</text>
</a>
</g>
</g>
<!-- Global&#45;&gt;agenda -->
<g id="edge44" class="edge"><title>Global&#45;&gt;agenda</title>
<path fill="none" stroke="darkorange" d="M375.17,-514.706C375.699,-498.806 376.475,-475.438 377.085,-457.057"/>
<polygon fill="darkorange" stroke="darkorange" points="380.589,-457.015 377.423,-446.904 373.593,-456.783 380.589,-457.015"/>
</g>
<!-- animation_crapauds -->
<g id="node45" class="node"><title>animation_crapauds</title>
<g id="a_node45"><a xlink:href="http://coa.crapaud-fou.org/channel/animation-crapauds" xlink:title="animation&#45;crapauds">
<text text-anchor="middle" x="194.144" y="-583.424" font-family="Times New Roman,serif" font-size="14.00">animation&#45;crapauds</text>
</a>
</g>
</g>
<!-- Global&#45;&gt;animation_crapauds -->
<g id="edge45" class="edge"><title>Global&#45;&gt;animation_crapauds</title>
<path fill="none" stroke="darkorange" d="M343.961,-542.072C322.017,-548.671 291.556,-557.831 263.827,-566.17"/>
<polygon fill="darkorange" stroke="darkorange" points="262.72,-562.848 254.152,-569.079 264.736,-569.551 262.72,-562.848"/>
</g>
<!-- christin -->
<g id="node49" class="node"><title>christin</title>
<g id="a_node49"><a xlink:href="http://coa.crapaud-fou.org/channel/christin" xlink:title="christin">
<text text-anchor="middle" x="313.47" y="-446.699" font-family="Times New Roman,serif" font-size="14.00">christin</text>
</a>
</g>
</g>
<!-- Global&#45;&gt;christin -->
<g id="edge50" class="edge"><title>Global&#45;&gt;christin</title>
<path fill="none" stroke="darkorange" d="M361.908,-515.781C353.615,-504.588 342.608,-489.729 333.181,-477.005"/>
<polygon fill="darkorange" stroke="darkorange" points="335.726,-474.561 326.961,-468.609 330.102,-478.728 335.726,-474.561"/>
</g>
<!-- faire -->
<g id="node56" class="node"><title>faire</title>
<g id="a_node56"><a xlink:href="http://coa.crapaud-fou.org/channel/faire" xlink:title="faire">
<text text-anchor="middle" x="269.544" y="-539.4" font-family="Times New Roman,serif" font-size="14.00">faire</text>
</a>
</g>
</g>
<!-- Global&#45;&gt;faire -->
<g id="edge58" class="edge"><title>Global&#45;&gt;faire</title>
<path fill="none" stroke="darkorange" d="M339.887,-536.247C329.293,-537.279 317.599,-538.419 306.838,-539.467"/>
<polygon fill="darkorange" stroke="darkorange" points="306.486,-535.985 296.873,-540.438 307.165,-542.952 306.486,-535.985"/>
</g>
<!-- faire_avancer_le_schmilblick_ecologique -->
<g id="node57" class="node"><title>faire_avancer_le_schmilblick_ecologique</title>
<g id="a_node57"><a xlink:href="http://coa.crapaud-fou.org/channel/faire-avancer-le-schmilblick-ecologique" xlink:title="faire&#45;avancer&#45;le&#45;schmilblick&#45;ecologique">
<text text-anchor="middle" x="117.416" y="-539.395" font-family="Times New Roman,serif" font-size="14.00">faire&#45;avancer&#45;le&#45;schmilblick&#45;ecologique</text>
</a>
</g>
</g>
<!-- Global&#45;&gt;faire_avancer_le_schmilblick_ecologique -->
<g id="edge59" class="edge"><title>Global&#45;&gt;faire_avancer_le_schmilblick_ecologique</title>
<path fill="none" stroke="darkorange" d="M339.351,-534.269C314.499,-535.257 279.553,-536.647 244.73,-538.032"/>
<polygon fill="darkorange" stroke="darkorange" points="244.284,-534.547 234.431,-538.441 244.562,-541.541 244.284,-534.547"/>
</g>
<!-- fou_a_lier -->
<g id="node58" class="node"><title>fou_a_lier</title>
<g id="a_node58"><a xlink:href="http://coa.crapaud-fou.org/channel/fou-a-lier" xlink:title="fou&#45;a&#45;lier">
<text text-anchor="middle" x="285.335" y="-490.733" font-family="Times New Roman,serif" font-size="14.00">fou&#45;a&#45;lier</text>
</a>
</g>
</g>
<!-- Global&#45;&gt;fou_a_lier -->
<g id="edge60" class="edge"><title>Global&#45;&gt;fou_a_lier</title>
<path fill="none" stroke="darkorange" d="M347.31,-521.128C341.318,-518.547 334.831,-515.753 328.388,-512.977"/>
<polygon fill="darkorange" stroke="darkorange" points="329.611,-509.693 319.042,-508.952 326.842,-516.122 329.611,-509.693"/>
</g>
<!-- general -->
<g id="node59" class="node"><title>general</title>
<g id="a_node59"><a xlink:href="http://coa.crapaud-fou.org/channel/general" xlink:title="general">
<text text-anchor="middle" x="350.651" y="-640.432" font-family="Times New Roman,serif" font-size="14.00">general</text>
</a>
</g>
</g>
<!-- Global&#45;&gt;general -->
<g id="edge61" class="edge"><title>Global&#45;&gt;general</title>
<path fill="none" stroke="darkorange" d="M370.618,-551.241C366.822,-568.902 361.033,-595.833 356.664,-616.159"/>
<polygon fill="darkorange" stroke="darkorange" points="353.207,-615.589 354.527,-626.101 360.051,-617.06 353.207,-615.589"/>
</g>
</g>
</svg>
