<?xml version="1.0" encoding="UTF-8" standalone="no"?>
<!DOCTYPE svg PUBLIC "-//W3C//DTD SVG 1.1//EN"
 "http://www.w3.org/Graphics/SVG/1.1/DTD/svg11.dtd">
<!-- Generated by graphviz version 2.38.0 (20140413.2041)
 -->
<!-- Title: G Pages: 1 -->
<svg width="1186pt" height="921pt"
 viewBox="0.00 0.00 1186.00 921.00" xmlns="http://www.w3.org/2000/svg" xmlns:xlink="http://www.w3.org/1999/xlink">
<g id="graph0" class="graph" transform="scale(1 1) rotate(0) translate(4 917)">
<title>G</title>
<polygon fill="white" stroke="none" points="-4,4 -4,-917 1182,-917 1182,4 -4,4"/>
<!-- Mare -->
<g id="node1" class="node"><title>Mare</title>
<polygon fill="none" stroke="black" points="551.667,-418.927 497.667,-418.927 497.667,-382.927 551.667,-382.927 551.667,-418.927"/>
<text text-anchor="middle" x="524.667" y="-397.227" font-family="Times New Roman,serif" font-size="14.00">Mare</text>
</g>
<!-- Wiki -->
<g id="node2" class="node"><title>Wiki</title>
<g id="a_node2"><a xlink:href="https://wiki.crapaud-fou.org/Accueil" xlink:title="Wiki">
<polygon fill="none" stroke="blueviolet" points="430.384,-443.254 390.836,-425.254 430.384,-407.254 469.931,-425.254 430.384,-443.254"/>
<text text-anchor="middle" x="430.384" y="-421.554" font-family="Times New Roman,serif" font-size="14.00">Wiki</text>
</a>
</g>
</g>
<!-- Mare&#45;&gt;Wiki -->
<g id="edge1" class="edge"><title>Mare&#45;&gt;Wiki</title>
<path fill="none" stroke="black" d="M497.649,-407.898C487.67,-410.473 476.21,-413.43 465.61,-416.165"/>
<polygon fill="black" stroke="black" points="464.595,-412.812 455.787,-418.699 466.344,-419.59 464.595,-412.812"/>
</g>
<!-- Idee -->
<g id="node3" class="node"><title>Idee</title>
<g id="a_node3"><a xlink:href="https://idees.crapaud-fou.org/" xlink:title="Idee">
<polygon fill="none" stroke="gold" points="437.787,-390.991 399.915,-372.991 437.787,-354.991 475.659,-372.991 437.787,-390.991"/>
<text text-anchor="middle" x="437.787" y="-369.291" font-family="Times New Roman,serif" font-size="14.00">Idee</text>
</a>
</g>
</g>
<!-- Mare&#45;&gt;Idee -->
<g id="edge2" class="edge"><title>Mare&#45;&gt;Idee</title>
<path fill="none" stroke="black" d="M497.654,-392.241C488.875,-389.418 479.045,-386.257 469.929,-383.326"/>
<polygon fill="black" stroke="black" points="470.992,-379.991 460.401,-380.262 468.85,-386.655 470.992,-379.991"/>
</g>
<!-- Chat -->
<g id="node4" class="node"><title>Chat</title>
<g id="a_node4"><a xlink:href="https://coa.crapaud-fou.org/" xlink:title="Chat">
<polygon fill="none" stroke="aqua" points="625.916,-430.304 586.368,-412.304 625.916,-394.304 665.463,-412.304 625.916,-430.304"/>
<text text-anchor="middle" x="625.916" y="-408.604" font-family="Times New Roman,serif" font-size="14.00">Chat</text>
</a>
</g>
</g>
<!-- Mare&#45;&gt;Chat -->
<g id="edge3" class="edge"><title>Mare&#45;&gt;Chat</title>
<path fill="none" stroke="black" d="M551.8,-403.976C561.654,-405.083 573.035,-406.362 583.875,-407.58"/>
<polygon fill="black" stroke="black" points="583.706,-411.083 594.034,-408.722 584.488,-404.127 583.706,-411.083"/>
</g>
<!-- Democratie -->
<g id="node5" class="node"><title>Democratie</title>
<ellipse fill="none" stroke="red" cx="675.839" cy="-686.245" rx="85.5853" ry="18"/>
<text text-anchor="middle" x="675.839" y="-682.545" font-family="Times New Roman,serif" font-size="14.00">Tsunami Democratie</text>
</g>
<!-- Chat&#45;&gt;Democratie -->
<g id="edge4" class="edge"><title>Chat&#45;&gt;Democratie</title>
<path fill="none" stroke="black" d="M628.963,-429.028C637.257,-474.536 660.302,-600.989 670.669,-657.876"/>
<polygon fill="black" stroke="black" points="667.272,-658.758 672.508,-667.968 674.159,-657.503 667.272,-658.758"/>
</g>
<!-- Ecologie -->
<g id="node6" class="node"><title>Ecologie</title>
<ellipse fill="none" stroke="limegreen" cx="455.615" cy="-556.067" rx="76.0865" ry="18"/>
<text text-anchor="middle" x="455.615" y="-552.367" font-family="Times New Roman,serif" font-size="14.00">Tsunami Ecologie</text>
</g>
<!-- Chat&#45;&gt;Ecologie -->
<g id="edge5" class="edge"><title>Chat&#45;&gt;Ecologie</title>
<path fill="none" stroke="black" d="M611.979,-424.069C584.136,-447.573 521.139,-500.754 484.164,-531.966"/>
<polygon fill="black" stroke="black" points="481.632,-529.524 476.248,-538.649 486.148,-534.872 481.632,-529.524"/>
</g>
<!-- Technologie -->
<g id="node7" class="node"><title>Technologie</title>
<ellipse fill="none" stroke="dimgrey" cx="816.039" cy="-511.416" rx="89.0842" ry="18"/>
<text text-anchor="middle" x="816.039" y="-507.716" font-family="Times New Roman,serif" font-size="14.00">Tsunami Technologie</text>
</g>
<!-- Chat&#45;&gt;Technologie -->
<g id="edge6" class="edge"><title>Chat&#45;&gt;Technologie</title>
<path fill="none" stroke="black" d="M644.492,-421.988C674.485,-437.624 734.299,-468.805 774.752,-489.893"/>
<polygon fill="black" stroke="black" points="773.344,-493.106 783.83,-494.625 776.58,-486.899 773.344,-493.106"/>
</g>
<!-- Cohorte -->
<g id="node8" class="node"><title>Cohorte</title>
<ellipse fill="none" stroke="black" cx="850.553" cy="-236.766" rx="40.0939" ry="18"/>
<text text-anchor="middle" x="850.553" y="-233.066" font-family="Times New Roman,serif" font-size="14.00">Cohorte</text>
</g>
<!-- Chat&#45;&gt;Cohorte -->
<g id="edge7" class="edge"><title>Chat&#45;&gt;Cohorte</title>
<path fill="none" stroke="black" d="M640.655,-400.787C677.487,-372.005 774.038,-296.556 822.277,-258.861"/>
<polygon fill="black" stroke="black" points="824.696,-261.413 830.42,-252.498 820.385,-255.897 824.696,-261.413"/>
</g>
<!-- Global -->
<g id="node9" class="node"><title>Global</title>
<ellipse fill="none" stroke="darkorange" cx="492.762" cy="-218.987" rx="35.194" ry="18"/>
<text text-anchor="middle" x="492.762" y="-215.287" font-family="Times New Roman,serif" font-size="14.00">Global</text>
</g>
<!-- Chat&#45;&gt;Global -->
<g id="edge8" class="edge"><title>Chat&#45;&gt;Global</title>
<path fill="none" stroke="black" d="M616.34,-398.401C594.118,-366.139 538.778,-285.795 510.302,-244.452"/>
<polygon fill="black" stroke="black" points="513.046,-242.266 504.491,-236.016 507.281,-246.237 513.046,-242.266"/>
</g>
<!-- cercle_collaboratif -->
<g id="node29" class="node"><title>cercle_collaboratif</title>
<g id="a_node29"><a xlink:href="http://coa.crapaud-fou.org/channel/cercle-collaboratif" xlink:title="cercle&#45;collaboratif">
<text text-anchor="middle" x="532.012" y="-890.867" font-family="Times New Roman,serif" font-size="14.00">cercle&#45;collaboratif</text>
</a>
</g>
</g>
<!-- Democratie&#45;&gt;cercle_collaboratif -->
<g id="edge28" class="edge"><title>Democratie&#45;&gt;cercle_collaboratif</title>
<path fill="none" stroke="red" d="M663.327,-704.368C637.879,-741.227 579.995,-825.067 550.312,-868.062"/>
<polygon fill="red" stroke="red" points="547.399,-866.12 544.598,-876.337 553.16,-870.097 547.399,-866.12"/>
</g>
<!-- cercle_diversite_culturelle -->
<g id="node31" class="node"><title>cercle_diversite_culturelle</title>
<g id="a_node31"><a xlink:href="http://coa.crapaud-fou.org/channel/cercle-diversité-culturelle" xlink:title="cercle&#45;diversité&#45;culturelle">
<text text-anchor="middle" x="907.97" y="-711.605" font-family="Times New Roman,serif" font-size="14.00">cercle&#45;diversité&#45;culturelle</text>
</a>
</g>
</g>
<!-- Democratie&#45;&gt;cercle_diversite_culturelle -->
<g id="edge30" class="edge"><title>Democratie&#45;&gt;cercle_diversite_culturelle</title>
<path fill="none" stroke="red" d="M749.606,-695.48C772.041,-698.288 796.918,-701.402 820.182,-704.315"/>
<polygon fill="red" stroke="red" points="820.033,-707.823 830.39,-705.593 820.903,-700.878 820.033,-707.823"/>
</g>
<!-- cercle_democratie -->
<g id="node32" class="node"><title>cercle_democratie</title>
<g id="a_node32"><a xlink:href="http://coa.crapaud-fou.org/channel/cercle-démocratie" xlink:title="cercle&#45;démocratie">
<text text-anchor="middle" x="801.449" y="-799.659" font-family="Times New Roman,serif" font-size="14.00">cercle&#45;démocratie</text>
</a>
</g>
</g>
<!-- Democratie&#45;&gt;cercle_democratie -->
<g id="edge31" class="edge"><title>Democratie&#45;&gt;cercle_democratie</title>
<path fill="none" stroke="red" d="M694.916,-704.032C716.096,-723.779 750.447,-755.807 774.397,-778.137"/>
<polygon fill="red" stroke="red" points="772.076,-780.759 781.777,-785.018 776.85,-775.639 772.076,-780.759"/>
</g>
<!-- cercle_education -->
<g id="node33" class="node"><title>cercle_education</title>
<g id="a_node33"><a xlink:href="http://coa.crapaud-fou.org/channel/cercle-education" xlink:title="cercle&#45;education">
<text text-anchor="middle" x="778.468" y="-755.628" font-family="Times New Roman,serif" font-size="14.00">cercle&#45;education</text>
</a>
</g>
</g>
<!-- Democratie&#45;&gt;cercle_education -->
<g id="edge32" class="edge"><title>Democratie&#45;&gt;cercle_education</title>
<path fill="none" stroke="red" d="M700.161,-703.565C713.44,-713.021 730.091,-724.878 744.621,-735.225"/>
<polygon fill="red" stroke="red" points="742.713,-738.163 752.889,-741.113 746.773,-732.461 742.713,-738.163"/>
</g>
<!-- cercle_enthousiasme -->
<g id="node35" class="node"><title>cercle_enthousiasme</title>
<g id="a_node35"><a xlink:href="http://coa.crapaud-fou.org/channel/cercle-enthousiasme" xlink:title="cercle&#45;enthousiasme">
<text text-anchor="middle" x="761.514" y="-866.636" font-family="Times New Roman,serif" font-size="14.00">cercle&#45;enthousiasme</text>
</a>
</g>
</g>
<!-- Democratie&#45;&gt;cercle_enthousiasme -->
<g id="edge34" class="edge"><title>Democratie&#45;&gt;cercle_enthousiasme</title>
<path fill="none" stroke="red" d="M684.21,-704.231C699.245,-736.538 730.911,-804.578 748.695,-842.793"/>
<polygon fill="red" stroke="red" points="745.716,-844.687 753.109,-852.276 752.063,-841.733 745.716,-844.687"/>
</g>
<!-- cercle_europe -->
<g id="node36" class="node"><title>cercle_europe</title>
<g id="a_node36"><a xlink:href="http://coa.crapaud-fou.org/channel/cercle-europe" xlink:title="cercle&#45;europe">
<text text-anchor="middle" x="479.546" y="-818.878" font-family="Times New Roman,serif" font-size="14.00">cercle&#45;europe</text>
</a>
</g>
</g>
<!-- Democratie&#45;&gt;cercle_europe -->
<g id="edge35" class="edge"><title>Democratie&#45;&gt;cercle_europe</title>
<path fill="none" stroke="red" d="M650.978,-703.512C616.355,-727.559 553.461,-771.241 514.237,-798.484"/>
<polygon fill="red" stroke="red" points="511.983,-795.788 505.766,-804.367 515.976,-801.537 511.983,-795.788"/>
</g>
<!-- cercle_permaculture -->
<g id="node42" class="node"><title>cercle_permaculture</title>
<g id="a_node42"><a xlink:href="http://coa.crapaud-fou.org/channel/cercle-permaculture" xlink:title="cercle&#45;permaculture">
<text text-anchor="middle" x="576.848" y="-596.646" font-family="Times New Roman,serif" font-size="14.00">cercle&#45;permaculture</text>
</a>
</g>
</g>
<!-- Democratie&#45;&gt;cercle_permaculture -->
<g id="edge41" class="edge"><title>Democratie&#45;&gt;cercle_permaculture</title>
<path fill="none" stroke="red" d="M655.328,-668.446C640.957,-655.976 621.553,-639.138 605.635,-625.325"/>
<polygon fill="red" stroke="red" points="607.52,-622.327 597.673,-618.417 602.932,-627.614 607.52,-622.327"/>
</g>
<!-- changer_de_paradigme -->
<g id="node48" class="node"><title>changer_de_paradigme</title>
<g id="a_node48"><a xlink:href="http://coa.crapaud-fou.org/channel/changer-de-paradigme" xlink:title="changer&#45;de&#45;paradigme">
<text text-anchor="middle" x="490.66" y="-730.31" font-family="Times New Roman,serif" font-size="14.00">changer&#45;de&#45;paradigme</text>
</a>
</g>
</g>
<!-- Democratie&#45;&gt;changer_de_paradigme -->
<g id="edge48" class="edge"><title>Democratie&#45;&gt;changer_de_paradigme</title>
<path fill="none" stroke="red" d="M621.281,-700.318C605.406,-704.412 587.727,-708.973 570.632,-713.382"/>
<polygon fill="red" stroke="red" points="569.461,-710.07 560.652,-715.957 571.209,-716.848 569.461,-710.07"/>
</g>
<!-- cnv -->
<g id="node50" class="node"><title>cnv</title>
<g id="a_node50"><a xlink:href="http://coa.crapaud-fou.org/channel/cnv" xlink:title="cnv">
<text text-anchor="middle" x="545.235" y="-640.687" font-family="Times New Roman,serif" font-size="14.00">cnv</text>
</a>
</g>
</g>
<!-- Democratie&#45;&gt;cnv -->
<g id="edge51" class="edge"><title>Democratie&#45;&gt;cnv</title>
<path fill="none" stroke="red" d="M628.688,-671.133C613.371,-666.224 596.608,-660.852 582.149,-656.218"/>
<polygon fill="red" stroke="red" points="583.145,-652.862 572.554,-653.143 581.009,-659.528 583.145,-652.862"/>
</g>
<!-- compagnon_du_devoir_educatif -->
<g id="node51" class="node"><title>compagnon_du_devoir_educatif</title>
<g id="a_node51"><a xlink:href="http://coa.crapaud-fou.org/channel/compagnon-du-devoir-educatif" xlink:title="compagnon&#45;du&#45;devoir&#45;educatif (projet)">
<text text-anchor="middle" x="347.87" y="-877.346" font-family="Times New Roman,serif" font-size="14.00" fill="blue">compagnon&#45;du&#45;devoir&#45;educatif (projet)</text>
</a>
</g>
</g>
<!-- Democratie&#45;&gt;compagnon_du_devoir_educatif -->
<g id="edge53" class="edge"><title>Democratie&#45;&gt;compagnon_du_devoir_educatif</title>
<path fill="none" stroke="red" d="M647.021,-703.361C588.202,-738.298 454.25,-817.86 387.377,-857.58"/>
<polygon fill="red" stroke="red" points="385.212,-854.795 378.401,-862.911 388.786,-860.814 385.212,-854.795"/>
</g>
<!-- conf_inter_g -->
<g id="node52" class="node"><title>conf_inter_g</title>
<g id="a_node52"><a xlink:href="http://coa.crapaud-fou.org/channel/conf-inter-g" xlink:title="conf&#45;inter&#45;g (projet)">
<text text-anchor="middle" x="518.46" y="-684.784" font-family="Times New Roman,serif" font-size="14.00" fill="blue">conf&#45;inter&#45;g (projet)</text>
</a>
</g>
</g>
<!-- Democratie&#45;&gt;conf_inter_g -->
<g id="edge54" class="edge"><title>Democratie&#45;&gt;conf_inter_g</title>
<path fill="none" stroke="red" d="M590.242,-687.463C590.156,-687.464 590.07,-687.465 589.985,-687.466"/>
<polygon fill="red" stroke="red" points="592.019,-683.937 582.07,-687.579 592.119,-690.936 592.019,-683.937"/>
</g>
<!-- cooperatives -->
<g id="node53" class="node"><title>cooperatives</title>
<g id="a_node53"><a xlink:href="http://coa.crapaud-fou.org/channel/cooperatives" xlink:title="cooperatives">
<text text-anchor="middle" x="690.961" y="-802.629" font-family="Times New Roman,serif" font-size="14.00">cooperatives</text>
</a>
</g>
</g>
<!-- Democratie&#45;&gt;cooperatives -->
<g id="edge56" class="edge"><title>Democratie&#45;&gt;cooperatives</title>
<path fill="none" stroke="red" d="M678.136,-704.483C680.604,-724.081 684.557,-755.475 687.423,-778.232"/>
<polygon fill="red" stroke="red" points="683.97,-778.828 688.693,-788.312 690.916,-777.953 683.97,-778.828"/>
</g>
<!-- economie_connaissance -->
<g id="node55" class="node"><title>economie_connaissance</title>
<g id="a_node55"><a xlink:href="http://coa.crapaud-fou.org/channel/economie-connaissance" xlink:title="economie&#45;connaissance">
<text text-anchor="middle" x="614.392" y="-846.635" font-family="Times New Roman,serif" font-size="14.00">economie&#45;connaissance</text>
</a>
</g>
</g>
<!-- Democratie&#45;&gt;economie_connaissance -->
<g id="edge58" class="edge"><title>Democratie&#45;&gt;economie_connaissance</title>
<path fill="none" stroke="red" d="M669.028,-704.432C658.324,-733.017 637.485,-788.665 624.865,-822.366"/>
<polygon fill="red" stroke="red" points="621.462,-821.473 621.233,-832.066 628.018,-823.928 621.462,-821.473"/>
</g>
<!-- cercle_autonomie_energetique -->
<g id="node27" class="node"><title>cercle_autonomie_energetique</title>
<g id="a_node27"><a xlink:href="http://coa.crapaud-fou.org/channel/cercle-autonomie-energetique" xlink:title="cercle&#45;autonomie&#45;energetique">
<text text-anchor="middle" x="259.922" y="-563.617" font-family="Times New Roman,serif" font-size="14.00">cercle&#45;autonomie&#45;energetique</text>
</a>
</g>
</g>
<!-- Ecologie&#45;&gt;cercle_autonomie_energetique -->
<g id="edge26" class="edge"><title>Ecologie&#45;&gt;cercle_autonomie_energetique</title>
<path fill="none" stroke="limegreen" d="M381.632,-560.32C374.414,-560.735 367.011,-561.16 359.595,-561.587"/>
<polygon fill="limegreen" stroke="limegreen" points="359.271,-558.099 349.489,-562.168 359.673,-565.088 359.271,-558.099"/>
</g>
<!-- Ecologie&#45;&gt;cercle_permaculture -->
<g id="edge42" class="edge"><title>Ecologie&#45;&gt;cercle_permaculture</title>
<path fill="none" stroke="limegreen" d="M496.997,-571.181C503.694,-573.627 510.74,-576.2 517.758,-578.764"/>
<polygon fill="limegreen" stroke="limegreen" points="516.683,-582.097 527.277,-582.24 519.085,-575.522 516.683,-582.097"/>
</g>
<!-- cercle_sante -->
<g id="node43" class="node"><title>cercle_sante</title>
<g id="a_node43"><a xlink:href="http://coa.crapaud-fou.org/channel/cercle-sante" xlink:title="cercle&#45;sante">
<text text-anchor="middle" x="312.416" y="-651.672" font-family="Times New Roman,serif" font-size="14.00">cercle&#45;sante</text>
</a>
</g>
</g>
<!-- Ecologie&#45;&gt;cercle_sante -->
<g id="edge43" class="edge"><title>Ecologie&#45;&gt;cercle_sante</title>
<path fill="none" stroke="limegreen" d="M430.998,-573.138C407.864,-589.181 373.014,-613.349 347.074,-631.338"/>
<polygon fill="limegreen" stroke="limegreen" points="344.871,-628.606 338.648,-637.181 348.86,-634.358 344.871,-628.606"/>
</g>
<!-- burn_out -->
<g id="node46" class="node"><title>burn_out</title>
<g id="a_node46"><a xlink:href="http://coa.crapaud-fou.org/channel/burn-out" xlink:title="burn&#45;out">
<text text-anchor="middle" x="380.105" y="-695.697" font-family="Times New Roman,serif" font-size="14.00">burn&#45;out</text>
</a>
</g>
</g>
<!-- Ecologie&#45;&gt;burn_out -->
<g id="edge46" class="edge"><title>Ecologie&#45;&gt;burn_out</title>
<path fill="none" stroke="limegreen" d="M446.204,-573.93C433.204,-598.606 409.638,-643.338 394.44,-672.186"/>
<polygon fill="limegreen" stroke="limegreen" points="391.198,-670.83 389.634,-681.309 397.392,-674.093 391.198,-670.83"/>
</g>
<!-- cause_animale -->
<g id="node47" class="node"><title>cause_animale</title>
<g id="a_node47"><a xlink:href="http://coa.crapaud-fou.org/channel/cause-animale" xlink:title="cause&#45;animale">
<text text-anchor="middle" x="326.516" y="-607.637" font-family="Times New Roman,serif" font-size="14.00">cause&#45;animale</text>
</a>
</g>
</g>
<!-- Ecologie&#45;&gt;cause_animale -->
<g id="edge47" class="edge"><title>Ecologie&#45;&gt;cause_animale</title>
<path fill="none" stroke="limegreen" d="M418.62,-571.905C406.028,-577.296 391.714,-583.424 378.187,-589.216"/>
<polygon fill="limegreen" stroke="limegreen" points="376.793,-586.005 368.978,-593.158 379.548,-592.44 376.793,-586.005"/>
</g>
<!-- Ecologie&#45;&gt;changer_de_paradigme -->
<g id="edge49" class="edge"><title>Ecologie&#45;&gt;changer_de_paradigme</title>
<path fill="none" stroke="limegreen" d="M459.168,-574.108C465.281,-605.15 477.833,-668.879 485.109,-705.821"/>
<polygon fill="limegreen" stroke="limegreen" points="481.731,-706.786 487.098,-715.921 488.599,-705.433 481.731,-706.786"/>
</g>
<!-- Ecologie&#45;&gt;cnv -->
<g id="edge52" class="edge"><title>Ecologie&#45;&gt;cnv</title>
<path fill="none" stroke="limegreen" d="M473.751,-573.94C486.904,-586.903 504.879,-604.617 519.513,-619.039"/>
<polygon fill="limegreen" stroke="limegreen" points="517.239,-621.711 526.818,-626.238 522.152,-616.726 517.239,-621.711"/>
</g>
<!-- Ecologie&#45;&gt;conf_inter_g -->
<g id="edge55" class="edge"><title>Ecologie&#45;&gt;conf_inter_g</title>
<path fill="none" stroke="limegreen" d="M464.221,-574.201C474.833,-596.561 492.978,-634.791 505.332,-660.822"/>
<polygon fill="limegreen" stroke="limegreen" points="502.306,-662.61 509.756,-670.143 508.63,-659.609 502.306,-662.61"/>
</g>
<!-- creation_ferme_pedagogique_secteur_france_sud_ouest_albi -->
<g id="node54" class="node"><title>creation_ferme_pedagogique_secteur_france_sud_ouest_albi</title>
<g id="a_node54"><a xlink:href="http://coa.crapaud-fou.org/channel/creation-ferme-pedagogique-secteur-france-sud-ouest-albi" xlink:title="creation&#45;ferme&#45;pedagogique&#45;secteur&#45;france&#45;sud&#45;ouest&#45;albi">
<text text-anchor="middle" x="169.494" y="-708.551" font-family="Times New Roman,serif" font-size="14.00">creation&#45;ferme&#45;pedagogique&#45;secteur&#45;france&#45;sud&#45;ouest&#45;albi</text>
</a>
</g>
</g>
<!-- Ecologie&#45;&gt;creation_ferme_pedagogique_secteur_france_sud_ouest_albi -->
<g id="edge57" class="edge"><title>Ecologie&#45;&gt;creation_ferme_pedagogique_secteur_france_sud_ouest_albi</title>
<path fill="none" stroke="limegreen" d="M425.266,-572.633C373.935,-600.653 269.882,-657.453 211.553,-689.292"/>
<polygon fill="limegreen" stroke="limegreen" points="209.7,-686.317 202.599,-694.18 213.054,-692.461 209.7,-686.317"/>
</g>
<!-- energie -->
<g id="node56" class="node"><title>energie</title>
<g id="a_node56"><a xlink:href="http://coa.crapaud-fou.org/channel/energie" xlink:title="energie">
<text text-anchor="middle" x="332.684" y="-519.585" font-family="Times New Roman,serif" font-size="14.00">energie</text>
</a>
</g>
</g>
<!-- Ecologie&#45;&gt;energie -->
<g id="edge59" class="edge"><title>Ecologie&#45;&gt;energie</title>
<path fill="none" stroke="limegreen" d="M404.904,-542.544C393.477,-539.497 381.537,-536.313 370.733,-533.432"/>
<polygon fill="limegreen" stroke="limegreen" points="371.34,-529.971 360.776,-530.776 369.536,-536.735 371.34,-529.971"/>
</g>
<!-- cercle_blockchain_crypto -->
<g id="node28" class="node"><title>cercle_blockchain_crypto</title>
<g id="a_node28"><a xlink:href="http://coa.crapaud-fou.org/channel/cercle-blockchain-crypto" xlink:title="cercle&#45;blockchain&#45;crypto">
<text text-anchor="middle" x="947.702" y="-625.507" font-family="Times New Roman,serif" font-size="14.00">cercle&#45;blockchain&#45;crypto</text>
</a>
</g>
</g>
<!-- Technologie&#45;&gt;cercle_blockchain_crypto -->
<g id="edge27" class="edge"><title>Technologie&#45;&gt;cercle_blockchain_crypto</title>
<path fill="none" stroke="dimgrey" d="M835.751,-529.051C858.018,-548.973 894.434,-581.552 919.658,-604.118"/>
<polygon fill="dimgrey" stroke="dimgrey" points="917.636,-607.006 927.423,-611.065 922.304,-601.789 917.636,-607.006"/>
</g>
<!-- cercle_electronique -->
<g id="node34" class="node"><title>cercle_electronique</title>
<g id="a_node34"><a xlink:href="http://coa.crapaud-fou.org/channel/cercle-electronique" xlink:title="cercle&#45;electronique">
<text text-anchor="middle" x="977.788" y="-537.448" font-family="Times New Roman,serif" font-size="14.00">cercle&#45;electronique</text>
</a>
</g>
</g>
<!-- Technologie&#45;&gt;cercle_electronique -->
<g id="edge33" class="edge"><title>Technologie&#45;&gt;cercle_electronique</title>
<path fill="none" stroke="dimgrey" d="M882.296,-523.595C890.27,-525.061 898.441,-526.563 906.484,-528.041"/>
<polygon fill="dimgrey" stroke="dimgrey" points="906.11,-531.531 916.578,-529.897 907.376,-524.647 906.11,-531.531"/>
</g>
<!-- cercle_genie_digital -->
<g id="node39" class="node"><title>cercle_genie_digital</title>
<g id="a_node39"><a xlink:href="http://coa.crapaud-fou.org/channel/cercle-genie-digital" xlink:title="cercle&#45;genie&#45;digital">
<text text-anchor="middle" x="964.044" y="-581.486" font-family="Times New Roman,serif" font-size="14.00">cercle&#45;genie&#45;digital</text>
</a>
</g>
</g>
<!-- Technologie&#45;&gt;cercle_genie_digital -->
<g id="edge38" class="edge"><title>Technologie&#45;&gt;cercle_genie_digital</title>
<path fill="none" stroke="dimgrey" d="M849.624,-528.156C870.088,-538.356 896.501,-551.521 918.792,-562.631"/>
<polygon fill="dimgrey" stroke="dimgrey" points="917.233,-565.765 927.745,-567.094 920.356,-559.5 917.233,-565.765"/>
</g>
<!-- cohorte_2607 -->
<g id="node10" class="node"><title>cohorte_2607</title>
<g id="a_node10"><a xlink:href="http://coa.crapaud-fou.org/channel/cohorte-2607" xlink:title="cohorte&#45;2607">
<text text-anchor="middle" x="917.997" y="-105.942" font-family="Times New Roman,serif" font-size="14.00">cohorte&#45;2607</text>
</a>
</g>
</g>
<!-- Cohorte&#45;&gt;cohorte_2607 -->
<g id="edge9" class="edge"><title>Cohorte&#45;&gt;cohorte_2607</title>
<path fill="none" stroke="black" d="M859.931,-219.09C871.228,-197.796 890.331,-161.789 903.524,-136.922"/>
<polygon fill="black" stroke="black" points="906.667,-138.465 908.262,-127.991 900.484,-135.184 906.667,-138.465"/>
</g>
<!-- cohorte_34 -->
<g id="node11" class="node"><title>cohorte_34</title>
<g id="a_node11"><a xlink:href="http://coa.crapaud-fou.org/channel/cohorte-34" xlink:title="cohorte&#45;34">
<text text-anchor="middle" x="726.046" y="-128.502" font-family="Times New Roman,serif" font-size="14.00">cohorte&#45;34</text>
</a>
</g>
</g>
<!-- Cohorte&#45;&gt;cohorte_34 -->
<g id="edge10" class="edge"><title>Cohorte&#45;&gt;cohorte_34</title>
<path fill="none" stroke="black" d="M831.371,-220.657C811.113,-203.643 778.919,-176.606 755.452,-156.898"/>
<polygon fill="black" stroke="black" points="757.458,-154.012 747.549,-150.261 752.956,-159.372 757.458,-154.012"/>
</g>
<!-- cohorte_5962 -->
<g id="node12" class="node"><title>cohorte_5962</title>
<g id="a_node12"><a xlink:href="http://coa.crapaud-fou.org/channel/cohorte-5962" xlink:title="cohorte&#45;5962">
<text text-anchor="middle" x="951.258" y="-339.817" font-family="Times New Roman,serif" font-size="14.00">cohorte&#45;5962</text>
</a>
</g>
</g>
<!-- Cohorte&#45;&gt;cohorte_5962 -->
<g id="edge11" class="edge"><title>Cohorte&#45;&gt;cohorte_5962</title>
<path fill="none" stroke="black" d="M866.288,-253.446C882.573,-270.709 908.222,-297.898 927.083,-317.891"/>
<polygon fill="black" stroke="black" points="924.538,-320.294 933.946,-325.166 929.63,-315.49 924.538,-320.294"/>
</g>
<!-- cohorte_belgique -->
<g id="node13" class="node"><title>cohorte_belgique</title>
<g id="a_node13"><a xlink:href="http://coa.crapaud-fou.org/channel/cohorte-belgique" xlink:title="cohorte&#45;belgique">
<text text-anchor="middle" x="744.582" y="-51.2839" font-family="Times New Roman,serif" font-size="14.00">cohorte&#45;belgique</text>
</a>
</g>
</g>
<!-- Cohorte&#45;&gt;cohorte_belgique -->
<g id="edge12" class="edge"><title>Cohorte&#45;&gt;cohorte_belgique</title>
<path fill="none" stroke="black" d="M840.392,-219.336C821.862,-187.55 782.462,-119.963 760.396,-82.1105"/>
<polygon fill="black" stroke="black" points="763.242,-80.0439 755.182,-73.1674 757.195,-83.5694 763.242,-80.0439"/>
</g>
<!-- cohorte_bourgogne -->
<g id="node14" class="node"><title>cohorte_bourgogne</title>
<g id="a_node14"><a xlink:href="http://coa.crapaud-fou.org/channel/cohorte-bourgogne" xlink:title="cohorte&#45;bourgogne">
<text text-anchor="middle" x="1102.89" y="-172.407" font-family="Times New Roman,serif" font-size="14.00">cohorte&#45;bourgogne</text>
</a>
</g>
</g>
<!-- Cohorte&#45;&gt;cohorte_bourgogne -->
<g id="edge13" class="edge"><title>Cohorte&#45;&gt;cohorte_bourgogne</title>
<path fill="none" stroke="black" d="M886.171,-228.203C923.587,-219.209 983.457,-204.817 1030.8,-193.437"/>
<polygon fill="black" stroke="black" points="1031.79,-196.798 1040.7,-191.058 1030.16,-189.992 1031.79,-196.798"/>
</g>
<!-- cohorte_bretagne -->
<g id="node15" class="node"><title>cohorte_bretagne</title>
<g id="a_node15"><a xlink:href="http://coa.crapaud-fou.org/channel/cohorte-bretagne" xlink:title="cohorte&#45;bretagne">
<text text-anchor="middle" x="962.14" y="-40.2763" font-family="Times New Roman,serif" font-size="14.00">cohorte&#45;bretagne</text>
</a>
</g>
</g>
<!-- Cohorte&#45;&gt;cohorte_bretagne -->
<g id="edge14" class="edge"><title>Cohorte&#45;&gt;cohorte_bretagne</title>
<path fill="none" stroke="black" d="M860.652,-219.317C880.213,-185.522 923.379,-110.944 946.612,-70.8034"/>
<polygon fill="black" stroke="black" points="949.678,-72.4938 951.658,-62.0857 943.62,-68.9872 949.678,-72.4938"/>
</g>
<!-- cohorte_geek -->
<g id="node16" class="node"><title>cohorte_geek</title>
<g id="a_node16"><a xlink:href="http://coa.crapaud-fou.org/channel/cohorte-geek" xlink:title="cohorte&#45;geek">
<text text-anchor="middle" x="818.004" y="-98.4717" font-family="Times New Roman,serif" font-size="14.00">cohorte&#45;geek</text>
</a>
</g>
</g>
<!-- Cohorte&#45;&gt;cohorte_geek -->
<g id="edge15" class="edge"><title>Cohorte&#45;&gt;cohorte_geek</title>
<path fill="none" stroke="black" d="M846.163,-218.614C840.679,-195.936 831.235,-156.887 824.81,-130.319"/>
<polygon fill="black" stroke="black" points="828.18,-129.363 822.428,-120.466 821.376,-131.008 828.18,-129.363"/>
</g>
<!-- cohorte_grand_est -->
<g id="node17" class="node"><title>cohorte_grand_est</title>
<g id="a_node17"><a xlink:href="http://coa.crapaud-fou.org/channel/cohorte-grand-est" xlink:title="cohorte&#45;grand&#45;est">
<text text-anchor="middle" x="982.085" y="-251.768" font-family="Times New Roman,serif" font-size="14.00">cohorte&#45;grand&#45;est</text>
</a>
</g>
</g>
<!-- Cohorte&#45;&gt;cohorte_grand_est -->
<g id="edge16" class="edge"><title>Cohorte&#45;&gt;cohorte_grand_est</title>
<path fill="none" stroke="black" d="M888.951,-242.225C896.799,-243.341 905.28,-244.547 913.818,-245.761"/>
<polygon fill="black" stroke="black" points="913.438,-249.242 923.831,-247.185 914.423,-242.312 913.438,-249.242"/>
</g>
<!-- cohorte_grenoble -->
<g id="node18" class="node"><title>cohorte_grenoble</title>
<g id="a_node18"><a xlink:href="http://coa.crapaud-fou.org/channel/cohorte-grenoble" xlink:title="cohorte&#45;grenoble">
<text text-anchor="middle" x="1028.99" y="-84.2858" font-family="Times New Roman,serif" font-size="14.00">cohorte&#45;grenoble</text>
</a>
</g>
</g>
<!-- Cohorte&#45;&gt;cohorte_grenoble -->
<g id="edge17" class="edge"><title>Cohorte&#45;&gt;cohorte_grenoble</title>
<path fill="none" stroke="black" d="M869.649,-220.844C900.743,-194.918 962.535,-143.398 999.366,-112.689"/>
<polygon fill="black" stroke="black" points="1001.83,-115.191 1007.27,-106.099 997.348,-109.815 1001.83,-115.191"/>
</g>
<!-- cohorte_lille -->
<g id="node19" class="node"><title>cohorte_lille</title>
<g id="a_node19"><a xlink:href="http://coa.crapaud-fou.org/channel/cohorte-lille" xlink:title="cohorte&#45;lille">
<text text-anchor="middle" x="783.267" y="-377.777" font-family="Times New Roman,serif" font-size="14.00">cohorte&#45;lille</text>
</a>
</g>
</g>
<!-- Cohorte&#45;&gt;cohorte_lille -->
<g id="edge18" class="edge"><title>Cohorte&#45;&gt;cohorte_lille</title>
<path fill="none" stroke="black" d="M842.302,-254.51C830.763,-279.328 809.695,-324.638 796.098,-353.882"/>
<polygon fill="black" stroke="black" points="792.84,-352.587 791.797,-363.131 799.187,-355.539 792.84,-352.587"/>
</g>
<!-- cohorte_normandie -->
<g id="node20" class="node"><title>cohorte_normandie</title>
<g id="a_node20"><a xlink:href="http://coa.crapaud-fou.org/channel/cohorte-normandie" xlink:title="cohorte&#45;normandie">
<text text-anchor="middle" x="677.181" y="-175.661" font-family="Times New Roman,serif" font-size="14.00">cohorte&#45;normandie</text>
</a>
</g>
</g>
<!-- Cohorte&#45;&gt;cohorte_normandie -->
<g id="edge19" class="edge"><title>Cohorte&#45;&gt;cohorte_normandie</title>
<path fill="none" stroke="black" d="M817.943,-225.968C796.459,-218.855 767.598,-209.299 741.602,-200.692"/>
<polygon fill="black" stroke="black" points="742.394,-197.267 731.801,-197.446 740.194,-203.912 742.394,-197.267"/>
</g>
<!-- cohorte_paca -->
<g id="node21" class="node"><title>cohorte_paca</title>
<g id="a_node21"><a xlink:href="http://coa.crapaud-fou.org/channel/cohorte-paca" xlink:title="cohorte&#45;paca">
<text text-anchor="middle" x="877.32" y="-383.818" font-family="Times New Roman,serif" font-size="14.00">cohorte&#45;paca</text>
</a>
</g>
</g>
<!-- Cohorte&#45;&gt;cohorte_paca -->
<g id="edge20" class="edge"><title>Cohorte&#45;&gt;cohorte_paca</title>
<path fill="none" stroke="black" d="M853.781,-254.95C858.384,-280.869 866.872,-328.676 872.299,-359.241"/>
<polygon fill="black" stroke="black" points="868.885,-360.036 874.079,-369.27 875.777,-358.812 868.885,-360.036"/>
</g>
<!-- cohorte_paris -->
<g id="node22" class="node"><title>cohorte_paris</title>
<g id="a_node22"><a xlink:href="http://coa.crapaud-fou.org/channel/cohorte-paris" xlink:title="cohorte&#45;paris">
<text text-anchor="middle" x="853.085" y="-49.4151" font-family="Times New Roman,serif" font-size="14.00">cohorte&#45;paris</text>
</a>
</g>
</g>
<!-- Cohorte&#45;&gt;cohorte_paris -->
<g id="edge21" class="edge"><title>Cohorte&#45;&gt;cohorte_paris</title>
<path fill="none" stroke="black" d="M850.805,-218.485C851.247,-186.446 852.164,-119.933 852.69,-81.7428"/>
<polygon fill="black" stroke="black" points="856.196,-81.369 852.834,-71.3217 849.196,-81.2725 856.196,-81.369"/>
</g>
<!-- cohorte_paysdesavoie -->
<g id="node23" class="node"><title>cohorte_paysdesavoie</title>
<g id="a_node23"><a xlink:href="http://coa.crapaud-fou.org/channel/cohorte-paysdesavoie" xlink:title="cohorte&#45;paysdesavoie">
<text text-anchor="middle" x="1108.72" y="-128.324" font-family="Times New Roman,serif" font-size="14.00">cohorte&#45;paysdesavoie</text>
</a>
</g>
</g>
<!-- Cohorte&#45;&gt;cohorte_paysdesavoie -->
<g id="edge22" class="edge"><title>Cohorte&#45;&gt;cohorte_paysdesavoie</title>
<path fill="none" stroke="black" d="M880.42,-224.648C922.904,-207.412 1001.49,-175.527 1054.44,-154.046"/>
<polygon fill="black" stroke="black" points="1056.07,-157.164 1064.02,-150.162 1053.43,-150.678 1056.07,-157.164"/>
</g>
<!-- cohorte_scientifque -->
<g id="node24" class="node"><title>cohorte_scientifque</title>
<g id="a_node24"><a xlink:href="http://coa.crapaud-fou.org/channel/cohorte-scientifque" xlink:title="cohorte&#45;scientifque">
<text text-anchor="middle" x="1048.77" y="-295.788" font-family="Times New Roman,serif" font-size="14.00">cohorte&#45;scientifque</text>
</a>
</g>
</g>
<!-- Cohorte&#45;&gt;cohorte_scientifque -->
<g id="edge23" class="edge"><title>Cohorte&#45;&gt;cohorte_scientifque</title>
<path fill="none" stroke="black" d="M883.729,-247.264C910.511,-255.739 949.049,-267.933 982.15,-278.408"/>
<polygon fill="black" stroke="black" points="981.187,-281.774 991.777,-281.454 983.299,-275.1 981.187,-281.774"/>
</g>
<!-- cohorte_sud_ouest -->
<g id="node25" class="node"><title>cohorte_sud_ouest</title>
<g id="a_node25"><a xlink:href="http://coa.crapaud-fou.org/channel/cohorte-sud-ouest" xlink:title="cohorte&#45;sud&#45;ouest">
<text text-anchor="middle" x="1108.2" y="-216.444" font-family="Times New Roman,serif" font-size="14.00">cohorte&#45;sud&#45;ouest</text>
</a>
</g>
</g>
<!-- Cohorte&#45;&gt;cohorte_sud_ouest -->
<g id="edge24" class="edge"><title>Cohorte&#45;&gt;cohorte_sud_ouest</title>
<path fill="none" stroke="black" d="M890.528,-234.187C929.902,-231.647 990.865,-227.714 1038.27,-224.656"/>
<polygon fill="black" stroke="black" points="1038.72,-228.134 1048.47,-223.997 1038.27,-221.149 1038.72,-228.134"/>
</g>
<!-- cohorte_suisse -->
<g id="node26" class="node"><title>cohorte_suisse</title>
<g id="a_node26"><a xlink:href="http://coa.crapaud-fou.org/channel/cohorte-suisse" xlink:title="cohorte&#45;suisse">
<text text-anchor="middle" x="982.073" y="-164.318" font-family="Times New Roman,serif" font-size="14.00">cohorte&#45;suisse</text>
</a>
</g>
</g>
<!-- Cohorte&#45;&gt;cohorte_suisse -->
<g id="edge25" class="edge"><title>Cohorte&#45;&gt;cohorte_suisse</title>
<path fill="none" stroke="black" d="M876.852,-223.019C894.404,-213.844 917.907,-201.559 938.248,-190.926"/>
<polygon fill="black" stroke="black" points="940.098,-193.909 947.339,-186.174 936.855,-187.705 940.098,-193.909"/>
</g>
<!-- cercle_des_arts -->
<g id="node30" class="node"><title>cercle_des_arts</title>
<g id="a_node30"><a xlink:href="http://coa.crapaud-fou.org/channel/cercle-des-arts" xlink:title="cercle&#45;des&#45;arts">
<text text-anchor="middle" x="408.682" y="-146.334" font-family="Times New Roman,serif" font-size="14.00">cercle&#45;des&#45;arts</text>
</a>
</g>
</g>
<!-- Global&#45;&gt;cercle_des_arts -->
<g id="edge29" class="edge"><title>Global&#45;&gt;cercle_des_arts</title>
<path fill="none" stroke="darkorange" d="M474.102,-203.684C463.724,-195.174 450.56,-184.378 438.765,-174.705"/>
<polygon fill="darkorange" stroke="darkorange" points="440.821,-171.864 430.869,-168.229 436.382,-177.277 440.821,-171.864"/>
</g>
<!-- cercle_game_changers -->
<g id="node37" class="node"><title>cercle_game_changers</title>
<g id="a_node37"><a xlink:href="http://coa.crapaud-fou.org/channel/cercle-game-changers" xlink:title="cercle&#45;game&#45;changers">
<text text-anchor="middle" x="437.943" y="-14.1971" font-family="Times New Roman,serif" font-size="14.00">cercle&#45;game&#45;changers</text>
</a>
</g>
</g>
<!-- Global&#45;&gt;cercle_game_changers -->
<g id="edge36" class="edge"><title>Global&#45;&gt;cercle_game_changers</title>
<path fill="none" stroke="darkorange" d="M487.897,-201.142C478.331,-166.051 457.011,-87.8416 445.561,-45.8412"/>
<polygon fill="darkorange" stroke="darkorange" points="448.883,-44.719 442.876,-35.9916 442.129,-46.5601 448.883,-44.719"/>
</g>
<!-- cercle_generation_2050 -->
<g id="node38" class="node"><title>cercle_generation_2050</title>
<g id="a_node38"><a xlink:href="http://coa.crapaud-fou.org/channel/cercle-generation-2050" xlink:title="cercle&#45;generation&#45;2050">
<text text-anchor="middle" x="398.164" y="-102.26" font-family="Times New Roman,serif" font-size="14.00">cercle&#45;generation&#45;2050</text>
</a>
</g>
</g>
<!-- Global&#45;&gt;cercle_generation_2050 -->
<g id="edge37" class="edge"><title>Global&#45;&gt;cercle_generation_2050</title>
<path fill="none" stroke="darkorange" d="M478.804,-202.31C463.309,-183.796 438.102,-153.678 419.993,-132.042"/>
<polygon fill="darkorange" stroke="darkorange" points="422.538,-129.628 413.435,-124.206 417.17,-134.121 422.538,-129.628"/>
</g>
<!-- cercle_intergenerationnel -->
<g id="node40" class="node"><title>cercle_intergenerationnel</title>
<g id="a_node40"><a xlink:href="http://coa.crapaud-fou.org/channel/cercle-intergenerationnel" xlink:title="cercle&#45;intergenerationnel">
<text text-anchor="middle" x="305.38" y="-190.373" font-family="Times New Roman,serif" font-size="14.00">cercle&#45;intergenerationnel</text>
</a>
</g>
</g>
<!-- Global&#45;&gt;cercle_intergenerationnel -->
<g id="edge39" class="edge"><title>Global&#45;&gt;cercle_intergenerationnel</title>
<path fill="none" stroke="darkorange" d="M458.393,-214.417C439.441,-211.898 414.988,-208.646 391.214,-205.485"/>
<polygon fill="darkorange" stroke="darkorange" points="391.459,-201.987 381.085,-204.139 390.536,-208.926 391.459,-201.987"/>
</g>
<!-- cercle_neurodiversite -->
<g id="node41" class="node"><title>cercle_neurodiversite</title>
<g id="a_node41"><a xlink:href="http://coa.crapaud-fou.org/channel/cercle-neurodiversité" xlink:title="cercle&#45;neurodiversité">
<text text-anchor="middle" x="252.563" y="-111.31" font-family="Times New Roman,serif" font-size="14.00">cercle&#45;neurodiversité</text>
</a>
</g>
</g>
<!-- Global&#45;&gt;cercle_neurodiversite -->
<g id="edge40" class="edge"><title>Global&#45;&gt;cercle_neurodiversite</title>
<path fill="none" stroke="darkorange" d="M465.675,-207.262C426.486,-190.297 353.251,-158.595 303.702,-137.147"/>
<polygon fill="darkorange" stroke="darkorange" points="305,-133.895 294.433,-133.134 302.219,-140.319 305,-133.895"/>
</g>
<!-- agenda -->
<g id="node44" class="node"><title>agenda</title>
<g id="a_node44"><a xlink:href="http://coa.crapaud-fou.org/channel/agenda" xlink:title="agenda">
<text text-anchor="middle" x="336.216" y="-278.72" font-family="Times New Roman,serif" font-size="14.00">agenda</text>
</a>
</g>
</g>
<!-- Global&#45;&gt;agenda -->
<g id="edge44" class="edge"><title>Global&#45;&gt;agenda</title>
<path fill="none" stroke="darkorange" d="M465.135,-230.182C439.774,-240.458 401.981,-255.772 373.864,-267.165"/>
<polygon fill="darkorange" stroke="darkorange" points="372.312,-264.017 364.358,-271.017 374.941,-270.505 372.312,-264.017"/>
</g>
<!-- animation_crapauds -->
<g id="node45" class="node"><title>animation_crapauds</title>
<g id="a_node45"><a xlink:href="http://coa.crapaud-fou.org/channel/animation-crapauds" xlink:title="animation&#45;crapauds">
<text text-anchor="middle" x="321.494" y="-58.2193" font-family="Times New Roman,serif" font-size="14.00">animation&#45;crapauds</text>
</a>
</g>
</g>
<!-- Global&#45;&gt;animation_crapauds -->
<g id="edge45" class="edge"><title>Global&#45;&gt;animation_crapauds</title>
<path fill="none" stroke="darkorange" d="M475.398,-203.062C445.591,-175.727 384.471,-119.675 348.877,-87.0323"/>
<polygon fill="darkorange" stroke="darkorange" points="350.999,-84.2296 341.264,-80.0502 346.268,-89.3886 350.999,-84.2296"/>
</g>
<!-- christin -->
<g id="node49" class="node"><title>christin</title>
<g id="a_node49"><a xlink:href="http://coa.crapaud-fou.org/channel/christin" xlink:title="christin">
<text text-anchor="middle" x="506.253" y="-120.773" font-family="Times New Roman,serif" font-size="14.00">christin</text>
</a>
</g>
</g>
<!-- Global&#45;&gt;christin -->
<g id="edge50" class="edge"><title>Global&#45;&gt;christin</title>
<path fill="none" stroke="darkorange" d="M495.363,-200.764C497.304,-187.166 499.993,-168.331 502.213,-152.778"/>
<polygon fill="darkorange" stroke="darkorange" points="505.712,-153.034 503.66,-142.64 498.782,-152.045 505.712,-153.034"/>
</g>
<!-- faire -->
<g id="node57" class="node"><title>faire</title>
<g id="a_node57"><a xlink:href="http://coa.crapaud-fou.org/channel/faire" xlink:title="faire">
<text text-anchor="middle" x="605.566" y="-120.718" font-family="Times New Roman,serif" font-size="14.00">faire</text>
</a>
</g>
</g>
<!-- Global&#45;&gt;faire -->
<g id="edge60" class="edge"><title>Global&#45;&gt;faire</title>
<path fill="none" stroke="darkorange" d="M511.137,-203.582C528.663,-188.889 555.359,-166.509 575.9,-149.288"/>
<polygon fill="darkorange" stroke="darkorange" points="578.304,-151.84 583.719,-142.733 573.807,-146.475 578.304,-151.84"/>
</g>
<!-- faire_avancer_le_schmilblick_ecologique -->
<g id="node58" class="node"><title>faire_avancer_le_schmilblick_ecologique</title>
<g id="a_node58"><a xlink:href="http://coa.crapaud-fou.org/channel/faire-avancer-le-schmilblick-ecologique" xlink:title="faire&#45;avancer&#45;le&#45;schmilblick&#45;ecologique">
<text text-anchor="middle" x="224.468" y="-234.703" font-family="Times New Roman,serif" font-size="14.00">faire&#45;avancer&#45;le&#45;schmilblick&#45;ecologique</text>
</a>
</g>
</g>
<!-- Global&#45;&gt;faire_avancer_le_schmilblick_ecologique -->
<g id="edge61" class="edge"><title>Global&#45;&gt;faire_avancer_le_schmilblick_ecologique</title>
<path fill="none" stroke="darkorange" d="M457.963,-221.506C430.695,-223.479 390.969,-226.354 351.991,-229.175"/>
<polygon fill="darkorange" stroke="darkorange" points="351.29,-225.716 341.568,-229.929 351.795,-232.698 351.29,-225.716"/>
</g>
<!-- fou_a_lier -->
<g id="node59" class="node"><title>fou_a_lier</title>
<g id="a_node59"><a xlink:href="http://coa.crapaud-fou.org/channel/fou-a-lier" xlink:title="fou&#45;a&#45;lier">
<text text-anchor="middle" x="574.954" y="-76.6789" font-family="Times New Roman,serif" font-size="14.00">fou&#45;a&#45;lier</text>
</a>
</g>
</g>
<!-- Global&#45;&gt;fou_a_lier -->
<g id="edge62" class="edge"><title>Global&#45;&gt;fou_a_lier</title>
<path fill="none" stroke="darkorange" d="M503.006,-201.713C517.002,-178.11 542.248,-135.534 558.805,-107.613"/>
<polygon fill="darkorange" stroke="darkorange" points="561.968,-109.141 564.058,-98.7548 555.947,-105.571 561.968,-109.141"/>
</g>
</g>
</svg>
